<svg width="105" height="105" viewBox="0 0 105 105" fill="none" xmlns="http://www.w3.org/2000/svg">
<g filter="url(#filter0_d_172_513)">
<rect x="30" y="26" width="45" height="45" rx="22.5" fill="#12991F"/>
</g>
<path d="M61.2081 47.7083C60.9981 47.7083 60.7968 47.6249 60.6483 47.4764C60.4998 47.3279 60.4164 47.1266 60.4164 46.9166C60.4147 45.2374 59.7469 43.6275 58.5596 42.4401C57.3722 41.2527 55.7623 40.5849 54.0831 40.5833C53.8731 40.5833 53.6718 40.4999 53.5233 40.3514C53.3748 40.2029 53.2914 40.0016 53.2914 39.7916C53.2914 39.5816 53.3748 39.3803 53.5233 39.2318C53.6718 39.0833 53.8731 38.9999 54.0831 38.9999C56.182 39.0022 58.1943 39.837 59.6785 41.3212C61.1626 42.8054 61.9974 44.8177 61.9997 46.9166C61.9997 47.1266 61.9163 47.3279 61.7679 47.4764C61.6194 47.6249 61.418 47.7083 61.2081 47.7083ZM58.8331 46.9166C58.8331 45.6568 58.3326 44.4486 57.4418 43.5578C56.551 42.667 55.3429 42.1666 54.0831 42.1666C53.8731 42.1666 53.6718 42.25 53.5233 42.3985C53.3748 42.5469 53.2914 42.7483 53.2914 42.9583C53.2914 43.1682 53.3748 43.3696 53.5233 43.5181C53.6718 43.6665 53.8731 43.7499 54.0831 43.7499C54.9229 43.7499 55.7284 44.0836 56.3223 44.6774C56.9161 45.2713 57.2497 46.0767 57.2497 46.9166C57.2497 47.1266 57.3332 47.3279 57.4816 47.4764C57.6301 47.6249 57.8314 47.7083 58.0414 47.7083C58.2514 47.7083 58.4527 47.6249 58.6012 47.4764C58.7497 47.3279 58.8331 47.1266 58.8331 46.9166ZM60.5613 56.5464L61.2817 55.716C61.7402 55.256 61.9977 54.6329 61.9977 53.9834C61.9977 53.3339 61.7402 52.7109 61.2817 52.2508C61.2572 52.2263 59.3524 50.7609 59.3524 50.7609C58.8953 50.3258 58.288 50.0835 57.6569 50.0844C57.0258 50.0852 56.4192 50.3292 55.9633 50.7657L54.4544 52.0371C53.2227 51.5273 52.1038 50.7793 51.1621 49.8359C50.2203 48.8925 49.4742 47.7723 48.9665 46.5398L50.2332 45.0356C50.67 44.5797 50.9143 43.9731 50.9153 43.3417C50.9163 42.7104 50.674 42.103 50.2387 41.6457C50.2387 41.6457 48.7718 39.7433 48.7472 39.7188C48.2956 39.2641 47.6832 39.0055 47.0423 38.9987C46.4015 38.9919 45.7837 39.2374 45.3225 39.6823L44.4121 40.474C39.0335 46.7139 50.6156 58.2066 57.0613 57.9999C57.7122 58.0037 58.3573 57.877 58.9584 57.6274C59.5595 57.3777 60.1046 57.0102 60.5613 56.5464Z" fill="white"/>
<defs>
<filter id="filter0_d_172_513" x="0" y="0" width="105" height="105" filterUnits="userSpaceOnUse" color-interpolation-filters="sRGB">
<feFlood flood-opacity="0" result="BackgroundImageFix"/>
<feColorMatrix in="SourceAlpha" type="matrix" values="0 0 0 0 0 0 0 0 0 0 0 0 0 0 0 0 0 0 127 0" result="hardAlpha"/>
<feOffset dy="4"/>
<feGaussianBlur stdDeviation="15"/>
<feComposite in2="hardAlpha" operator="out"/>
<feColorMatrix type="matrix" values="0 0 0 0 0.211765 0 0 0 0 0.443137 0 0 0 0 0.898039 0 0 0 0.3 0"/>
<feBlend mode="normal" in2="BackgroundImageFix" result="effect1_dropShadow_172_513"/>
<feBlend mode="normal" in="SourceGraphic" in2="effect1_dropShadow_172_513" result="shape"/>
</filter>
</defs>
</svg>
