<svg width="28" height="30" viewBox="0 0 28 30" fill="none" xmlns="http://www.w3.org/2000/svg">
<path d="M27.3569 24.6574C27.3569 26.1752 26.8952 27.3737 25.9718 28.2528C25.0485 29.1319 23.8215 29.5714 22.291 29.5714H5.70843C4.17792 29.5714 2.95099 29.1319 2.02762 28.2528C1.10426 27.3737 0.642578 26.1752 0.642578 24.6574C0.642578 23.987 0.664714 23.3324 0.708984 22.6937C0.753255 22.0549 0.841797 21.3655 0.974609 20.6256C1.10742 19.8856 1.27502 19.1994 1.4774 18.567C1.67978 17.9345 1.95173 17.3179 2.29325 16.7171C2.63477 16.1163 3.02688 15.604 3.46959 15.1803C3.9123 14.7565 4.45303 14.4182 5.0918 14.1652C5.73056 13.9122 6.43573 13.7857 7.20731 13.7857C7.32115 13.7857 7.58678 13.9217 8.00419 14.1937C8.4216 14.4656 8.89277 14.7692 9.41769 15.1044C9.94262 15.4396 10.6257 15.7431 11.4668 16.0151C12.3079 16.287 13.1523 16.423 13.9997 16.423C14.8472 16.423 15.6915 16.287 16.5326 16.0151C17.3738 15.7431 18.0568 15.4396 18.5818 15.1044C19.1067 14.7692 19.5778 14.4656 19.9953 14.1937C20.4127 13.9217 20.6783 13.7857 20.7921 13.7857C21.5637 13.7857 22.2689 13.9122 22.9076 14.1652C23.5464 14.4182 24.0872 14.7565 24.5299 15.1803C24.9726 15.604 25.3647 16.1163 25.7062 16.7171C26.0477 17.3179 26.3197 17.9345 26.522 18.567C26.7244 19.1994 26.892 19.8856 27.0248 20.6256C27.1576 21.3655 27.2462 22.0549 27.2905 22.6937C27.3347 23.3324 27.3569 23.987 27.3569 24.6574ZM21.2854 7.7143C21.2854 9.72546 20.5739 11.4425 19.151 12.8655C17.728 14.2885 16.0109 15 13.9997 15C11.9886 15 10.2715 14.2885 8.84849 12.8655C7.4255 11.4425 6.71401 9.72546 6.71401 7.7143C6.71401 5.70314 7.4255 3.98607 8.84849 2.56308C10.2715 1.14008 11.9886 0.428589 13.9997 0.428589C16.0109 0.428589 17.728 1.14008 19.151 2.56308C20.5739 3.98607 21.2854 5.70314 21.2854 7.7143Z" fill="#003048"/>
</svg>
