<svg width="20" height="20" viewBox="0 0 20 20" fill="none" xmlns="http://www.w3.org/2000/svg">
<path d="M10 0C7.34872 0.00286757 4.80684 1.05736 2.9321 2.9321C1.05736 4.80684 0.00286757 7.34872 0 10C0.5 23.25 19.5 23.2442 20 10C19.9971 7.34872 18.9426 4.80684 17.0679 2.9321C15.1932 1.05736 12.6513 0.00286757 10 0V0ZM12.9167 5.83333C14.5533 5.85583 14.5533 9.9775 12.9167 10C11.28 9.9775 11.28 5.85583 12.9167 5.83333ZM7.08333 5.83333C8.72 5.85583 8.72 9.9775 7.08333 10C5.44667 9.9775 5.44667 5.85583 7.08333 5.83333ZM14.8683 12.9517C14.3787 13.8149 13.6718 14.535 12.8177 15.0405C11.9637 15.546 10.9923 15.8193 10 15.8333C9.00699 15.8195 8.03485 15.5462 7.18001 15.0408C6.32516 14.5353 5.61731 13.8151 5.12667 12.9517C5.03807 12.8134 4.99231 12.652 4.99514 12.4878C4.99797 12.3236 5.04926 12.1638 5.14257 12.0287C5.23588 11.8935 5.36705 11.789 5.5196 11.7281C5.67215 11.6673 5.83928 11.6528 6 11.6867C7.2814 12.1694 8.63181 12.444 10 12.5C11.3659 12.4433 12.714 12.1687 13.9933 11.6867C14.1542 11.6524 14.3216 11.6665 14.4744 11.7272C14.6272 11.7879 14.7587 11.8924 14.8523 12.0277C14.9458 12.1629 14.9973 12.3228 15.0001 12.4872C15.003 12.6517 14.9571 12.8132 14.8683 12.9517Z" fill="#F67F20"/>
</svg>
