<svg width="92" height="81" viewBox="0 0 92 81" fill="none" xmlns="http://www.w3.org/2000/svg">
<path d="M46.0015 9.26297C48.6271 9.26297 51.2386 10.9025 53.2277 14.1816L80.8966 59.8202C84.8794 66.3738 81.8045 71.737 74.0823 71.737H17.9208C10.1986 71.737 7.12371 66.3691 11.1065 59.8202L38.7754 14.1816C40.7645 10.9025 43.376 9.26297 46.0015 9.26297ZM46.0015 0C39.9361 0 34.3855 3.4273 30.749 9.40654L3.08008 55.0544C-0.598504 61.117 -1.00099 67.5826 1.98025 72.793C4.96149 78.0034 10.7742 81 17.9208 81H74.0823C81.2289 81 87.0463 78.0081 90.0228 72.7976C92.9994 67.5872 92.6016 61.1217 88.923 55.0591L61.2541 9.42044C57.6176 3.4273 52.067 0 46.0015 0Z" fill="#FF3636"/>
<path d="M53.0233 61.3068C53.0233 61.3068 49.6957 62.9788 47.9921 62.1497C46.2979 61.2975 45.9609 59.6441 46.9204 56.8143L48.8205 51.1592C50.7066 45.5042 48.2542 41.5443 43.7566 41.2895C37.869 40.9653 34.3027 45.1151 34.3027 45.1151C34.3027 45.1151 37.6256 43.4247 39.3339 44.2722C41.0281 45.1244 41.3557 46.7778 40.4056 49.6077L38.5055 55.2627C36.61 60.9178 39.0624 64.8684 43.5694 65.1324C49.457 65.4612 53.0233 61.3068 53.0233 61.3068Z" fill="#FF3636"/>
<path d="M46.0039 36.0792C49.3667 36.0792 52.0927 33.3815 52.0927 30.0536C52.0927 26.7258 49.3667 24.0281 46.0039 24.0281C42.6411 24.0281 39.915 26.7258 39.915 30.0536C39.915 33.3815 42.6411 36.0792 46.0039 36.0792Z" fill="#FF3636"/>
</svg>
