<svg width="60" height="60" viewBox="0 0 60 60" fill="none" xmlns="http://www.w3.org/2000/svg">
<circle cx="30" cy="30" r="30" fill="#003048"/>
<path fill-rule="evenodd" clip-rule="evenodd" d="M20.791 27.8747C20.0097 27.8747 19.375 28.5093 19.375 29.292V39.208C19.375 39.9907 20.0097 40.6254 20.791 40.6254H23.6243C24.407 40.6254 25.0417 39.9907 25.0417 39.208V29.292C25.0417 28.5093 24.407 27.8747 23.6243 27.8747H20.791ZM28.5833 16.5413C27.8006 16.5413 27.166 17.176 27.166 17.9587V39.208C27.166 39.9907 27.8006 40.6254 28.5833 40.6254H31.416C32.198 40.6254 32.8326 39.9907 32.8326 39.208V17.9587C32.8326 17.176 32.198 16.5413 31.416 16.5413H28.5833ZM36.375 22.208C35.5923 22.208 34.9576 22.8427 34.9576 23.6254V39.208C34.9576 39.9907 35.5923 40.6254 36.375 40.6254H39.2083C39.9896 40.6254 40.6243 39.9907 40.6243 39.208V23.6254C40.6243 22.8427 39.9896 22.208 39.2083 22.208H36.375Z" fill="white"/>
</svg>
