<svg width="30" height="30" viewBox="0 0 30 30" fill="none" xmlns="http://www.w3.org/2000/svg">
<path d="M15 18.7407C12.9289 18.7407 11.25 20.4196 11.25 22.4907V29.9907H18.75V22.4907C18.75 20.4196 17.0711 18.7407 15 18.7407Z" fill="#003048"/>
<path d="M21.25 22.4907V29.9907H26.25C28.3211 29.9907 30 28.3117 30 26.2407V14.8395C30.0003 14.1901 29.7479 13.566 29.2962 13.0995L18.6738 1.61567C16.7995 -0.41226 13.6361 -0.536772 11.6082 1.33753C11.5119 1.42659 11.419 1.51934 11.33 1.61567L0.72627 13.0957C0.260918 13.5642 -0.000175693 14.1979 8.87009e-08 14.8582V26.2407C8.87009e-08 28.3117 1.67895 29.9907 3.75 29.9907H8.74998V22.4907C8.77336 19.0822 11.5253 16.2987 14.848 16.2186C18.2818 16.1357 21.2238 18.9666 21.25 22.4907Z" fill="#003048"/>
<path d="M15 18.7407C12.9289 18.7407 11.25 20.4196 11.25 22.4907V29.9907H18.75V22.4907C18.75 20.4196 17.0711 18.7407 15 18.7407Z" fill="#003048"/>
</svg>
