<svg width="21" height="26" viewBox="0 0 21 26" fill="none" xmlns="http://www.w3.org/2000/svg">
<path d="M10.5 14.3C10.1519 14.3 9.81806 14.437 9.57192 14.6807C9.32578 14.9245 9.1875 15.2552 9.1875 15.6V19.5C9.1875 19.8448 9.32578 20.1754 9.57192 20.4192C9.81806 20.663 10.1519 20.8 10.5 20.8C10.8481 20.8 11.1819 20.663 11.4281 20.4192C11.6742 20.1754 11.8125 19.8448 11.8125 19.5V15.6C11.8125 15.2552 11.6742 14.9245 11.4281 14.6807C11.1819 14.437 10.8481 14.3 10.5 14.3ZM17.0625 9.09999V6.5C17.0625 4.77609 16.3711 3.12279 15.1404 1.9038C13.9097 0.684819 12.2405 0 10.5 0C8.75952 0 7.09032 0.684819 5.85961 1.9038C4.6289 3.12279 3.9375 4.77609 3.9375 6.5V9.09999C2.89321 9.09999 1.89169 9.51088 1.15327 10.2423C0.414843 10.9737 0 11.9656 0 13V22.1C0 23.1343 0.414843 24.1263 1.15327 24.8577C1.89169 25.5891 2.89321 26 3.9375 26H17.0625C18.1068 26 19.1083 25.5891 19.8467 24.8577C20.5852 24.1263 21 23.1343 21 22.1V13C21 11.9656 20.5852 10.9737 19.8467 10.2423C19.1083 9.51088 18.1068 9.09999 17.0625 9.09999ZM6.5625 6.5C6.5625 5.46565 6.97734 4.47367 7.71577 3.74228C8.45419 3.01089 9.45571 2.6 10.5 2.6C11.5443 2.6 12.5458 3.01089 13.2842 3.74228C14.0227 4.47367 14.4375 5.46565 14.4375 6.5V9.09999H6.5625V6.5ZM18.375 22.1C18.375 22.4448 18.2367 22.7754 17.9906 23.0192C17.7444 23.263 17.4106 23.4 17.0625 23.4H3.9375C3.5894 23.4 3.25556 23.263 3.00942 23.0192C2.76328 22.7754 2.625 22.4448 2.625 22.1V13C2.625 12.6552 2.76328 12.3245 3.00942 12.0808C3.25556 11.837 3.5894 11.7 3.9375 11.7H17.0625C17.4106 11.7 17.7444 11.837 17.9906 12.0808C18.2367 12.3245 18.375 12.6552 18.375 13V22.1Z" fill="#F67F20"/>
</svg>
