<svg width="30" height="33" viewBox="0 0 30 33" fill="none" xmlns="http://www.w3.org/2000/svg">
<path d="M4.42374 24H25.2984C25.9409 24 26.5738 23.8453 27.1438 23.5489C27.7138 23.2525 28.2041 22.8232 28.573 22.2973C28.942 21.7714 29.1789 21.1643 29.2636 20.5275C29.3483 19.8906 29.2784 19.2428 29.0597 18.6387L25.2571 8.12533C24.6076 5.78894 23.2108 3.72959 21.2801 2.26223C19.3495 0.794866 16.9914 0.000282771 14.5664 1.35641e-09V1.35642e-09C12.042 -3.94564e-05 9.59314 0.860784 7.62402 2.44034C5.65491 4.0199 4.28333 6.22374 3.73574 8.688L0.602405 18.8213C0.417924 19.4196 0.376451 20.0528 0.481323 20.67C0.586194 21.2873 0.834481 21.8712 1.20621 22.375C1.57793 22.8788 2.06272 23.2882 2.62155 23.5705C3.18039 23.8527 3.79767 23.9998 4.42374 24V24Z" fill="#003048"/>
<path d="M8.4668 26.6667C8.77282 28.1737 9.59044 29.5286 10.7811 30.5018C11.9718 31.475 13.4623 32.0067 15.0001 32.0067C16.5379 32.0067 18.0285 31.475 19.2191 30.5018C20.4098 29.5286 21.2274 28.1737 21.5335 26.6667H8.4668Z" fill="#003048"/>
</svg>
