<svg width="60" height="60" viewBox="0 0 60 60" fill="none" xmlns="http://www.w3.org/2000/svg">
<circle cx="30" cy="30" r="30" fill="#F67F20"/>
<path d="M20.3103 35.192L25.8103 40.692C25.0412 41.0052 24.1969 41.0845 23.383 40.9201C22.5691 40.7557 21.8217 40.3548 21.2346 39.7677C20.6474 39.1805 20.2465 38.4332 20.0821 37.6193C19.9177 36.8054 19.9971 35.961 20.3103 35.192ZM25.3273 19.98C25.5872 19.9269 25.8154 19.7728 25.9616 19.5515C26.1079 19.3302 26.1603 19.0599 26.1073 18.8C26.0542 18.5401 25.9001 18.3119 25.6788 18.1656C25.4575 18.0193 25.1872 17.9669 24.9273 18.02C22.2456 18.4898 19.8443 19.9651 18.2133 22.145C18.0652 22.3586 18.0062 22.6214 18.0486 22.8778C18.091 23.1341 18.2315 23.3639 18.4404 23.5185C18.6493 23.6731 18.9101 23.7402 19.1677 23.7058C19.4253 23.6714 19.6593 23.538 19.8203 23.334C21.1544 21.5473 23.1276 20.3456 25.3273 19.98ZM41.2003 34.023C40.9413 33.9662 40.6703 34.0145 40.447 34.1574C40.2236 34.3003 40.0662 34.526 40.0093 34.785C39.6293 36.9428 38.4436 38.8755 36.6923 40.192C36.478 40.3485 36.3346 40.5837 36.2937 40.8458C36.2528 41.108 36.3178 41.3757 36.4743 41.59C36.6307 41.8043 36.8659 41.9476 37.1281 41.9885C37.3903 42.0294 37.658 41.9645 37.8723 41.808C40.0124 40.1994 41.4718 37.8469 41.9623 35.215C41.9905 35.0867 41.9933 34.9541 41.9703 34.8247C41.9473 34.6953 41.899 34.5718 41.8283 34.4611C41.7575 34.3504 41.6656 34.2547 41.5579 34.1796C41.4501 34.1044 41.3286 34.0512 41.2003 34.023ZM38.1673 23.247L39.7073 21.707C39.8028 21.6147 39.879 21.5044 39.9314 21.3824C39.9838 21.2604 40.0114 21.1292 40.0125 20.9964C40.0137 20.8636 39.9884 20.7319 39.9381 20.609C39.8878 20.4861 39.8135 20.3745 39.7197 20.2806C39.6258 20.1867 39.5141 20.1124 39.3912 20.0622C39.2683 20.0119 39.1366 19.9866 39.0039 19.9877C38.8711 19.9889 38.7399 20.0165 38.6179 20.0689C38.4958 20.1213 38.3855 20.1975 38.2933 20.293L36.7513 21.835C35.3706 20.7379 33.6816 20.0999 31.9204 20.0102C30.1593 19.9206 28.4141 20.3838 26.9293 21.335L21.4293 24.735C20.7843 25.1336 20.2379 25.6729 19.8309 26.3126C19.424 26.9523 19.167 27.6758 19.0793 28.4289C18.9915 29.1819 19.0753 29.9451 19.3244 30.6612C19.5734 31.3773 19.9812 32.0278 20.5173 32.564L27.4763 39.523C28.0134 40.0603 28.6654 40.4688 29.3831 40.7179C30.1009 40.9669 30.8658 41.05 31.6203 40.9609C32.3748 40.8718 33.0993 40.6127 33.7393 40.2033C34.3793 39.7939 34.9181 39.2447 35.3153 38.597L38.9153 32.721C39.7427 31.2452 40.1134 29.557 39.9802 27.8704C39.847 26.1837 39.2161 24.5746 38.1673 23.247Z" fill="white"/>
</svg>
