<svg width="27" height="34" viewBox="0 0 27 34" fill="none" xmlns="http://www.w3.org/2000/svg">
<path d="M7.50673 1.64612C7.50673 2.1628 7.50673 2.63297 7.50673 3.10624C7.51486 5.20911 8.87515 6.5938 10.939 6.5969C12.9824 6.5969 15.0252 6.5969 17.0674 6.5969C19.1088 6.5969 20.4742 5.20704 20.4854 3.13001C20.4854 2.65467 20.4854 2.17933 20.4854 1.72466C20.5311 1.68952 20.5504 1.66162 20.5698 1.66162C21.9646 1.66162 23.3615 1.61925 24.7543 1.66162C25.8635 1.69676 26.7805 2.6092 26.9462 3.72832C26.9769 3.93351 26.9922 4.14078 26.992 4.34833C26.992 12.9988 26.992 21.6497 26.992 30.3009C26.992 31.2226 26.7053 31.9935 25.954 32.5464C25.4833 32.8936 24.9485 33.0031 24.3741 33.0021C17.4608 32.9979 10.5476 32.9979 3.63428 33.0021C2.00763 33.0021 0.998087 31.9821 0.99707 30.3288C0.999104 26.5219 1.00012 22.7158 1.00012 18.9103C1.00012 14.0384 1.00012 9.1658 1.00012 4.29253C1.00012 2.90784 1.79921 1.89929 3.06394 1.68022C3.30289 1.64897 3.54399 1.63791 3.78475 1.64715C4.87562 1.64715 5.96649 1.64715 7.05737 1.64715L7.50673 1.64612ZM13.9981 24.758H21.7603C21.8741 24.758 21.989 24.758 22.1029 24.758C22.6041 24.7156 22.9213 24.386 22.9162 23.9179C22.9162 23.4653 22.601 23.148 22.1171 23.1036C22.0032 23.0933 21.8884 23.1036 21.7745 23.1036C16.5875 23.1036 11.4002 23.1036 6.21252 23.1036C6.03564 23.098 5.85869 23.1122 5.68488 23.146C5.51601 23.1921 5.36672 23.2933 5.25996 23.4341C5.1532 23.5748 5.09488 23.7473 5.09395 23.9251C5.09303 24.1028 5.14956 24.2759 5.25485 24.4178C5.36014 24.5597 5.50837 24.6625 5.67674 24.7105C5.85038 24.7458 6.02738 24.7611 6.20439 24.7559C8.80297 24.7594 11.4019 24.7601 14.0011 24.758H13.9981ZM13.9981 18.1446H21.7969C21.9366 18.1486 22.0764 18.1448 22.2157 18.1332C22.4069 18.1155 22.5848 18.0259 22.7145 17.882C22.8442 17.7381 22.9165 17.5503 22.9172 17.3551C22.9315 16.8146 22.5746 16.5026 21.93 16.5015H6.06612C5.97727 16.4988 5.88834 16.5012 5.79976 16.5088C5.58906 16.5297 5.3951 16.6347 5.26038 16.8006C5.12566 16.9666 5.06115 17.1801 5.08098 17.3944C5.11352 17.879 5.448 18.1435 6.04782 18.1446C8.69859 18.1453 11.3494 18.1449 14.0001 18.1435L13.9981 18.1446ZM13.9666 11.5497H21.8416C21.9684 11.5551 22.0955 11.5516 22.2218 11.5394C22.4188 11.5138 22.5992 11.4142 22.7277 11.2603C22.8562 11.1064 22.9234 10.9093 22.9162 10.7076C22.9181 10.5057 22.8434 10.3108 22.7077 10.1634C22.5719 10.016 22.3856 9.92743 22.1873 9.91601C22.0612 9.90361 21.9341 9.90671 21.807 9.90671H6.17287C6.03341 9.90255 5.89382 9.90773 5.75503 9.92221C5.57108 9.94555 5.40157 10.0355 5.27758 10.1756C5.15359 10.3156 5.08343 10.4964 5.07997 10.6848C5.05963 11.2108 5.41953 11.5487 6.01732 11.5497C8.66809 11.5504 11.3185 11.5501 13.9686 11.5487L13.9666 11.5497Z" fill="#003048"/>
<path d="M14.0209 0C15.0609 0 16.102 0 17.141 0C18.2136 0.00723344 18.8693 0.676844 18.8693 1.76599C18.8693 2.2558 18.8744 2.74561 18.8693 3.23542C18.8592 4.2078 18.2197 4.92804 17.2671 4.93941C15.0853 4.96421 12.9039 4.96421 10.7229 4.93941C9.76924 4.92907 9.13281 4.20676 9.13281 3.23128C9.13281 2.74148 9.13281 2.25167 9.13281 1.76186C9.13281 0.674777 9.78551 0.00930014 10.8611 0C11.9164 0 12.9687 0 14.0209 0Z" fill="#003048"/>
</svg>
