<svg width="30" height="28" viewBox="0 0 30 28" fill="none" xmlns="http://www.w3.org/2000/svg">
<path d="M29.1187 14.8813C29.6812 15.4438 30 16.2062 30 17C30 17.7938 29.6812 18.5562 29.1187 19.1187C28.5562 19.6812 27.7938 20 27 20H3C2.20438 20 1.44125 19.6812 0.87875 19.1187C0.31625 18.5562 0 17.7938 0 17C0 16.2062 0.31625 15.4438 0.87875 14.8813C1.44125 14.3188 2.20438 14 3 14H27C27.7938 14 28.5562 14.3188 29.1187 14.8813ZM28.7062 22.2938C28.8937 22.4813 29 22.7375 29 23V24C29 25.0063 28.5812 26.0812 27.8312 26.8312C27.0812 27.5812 26.0063 28 25 28H5C3.93937 28 2.92188 27.5812 2.17188 26.8312C1.42125 26.0812 1 25.0063 1 24V23C1 22.7375 1.10562 22.4813 1.29312 22.2938C1.48062 22.1063 1.735 22 2 22H28C28.2625 22 28.5187 22.1063 28.7062 22.2938ZM2.14937 11.8C1.87063 11.6625 1.62688 11.4688 1.43563 11.225C1.24438 10.9813 1.11188 10.7 1.04688 10.4C0.981875 10.0938 0.9875 9.78125 1.06188 9.48125C2.43625 4.06375 8.15625 0 15 0C21.8438 0 27.5625 4.06375 28.9375 9.48125C29.0125 9.78125 29.0188 10.0938 28.95 10.4C28.8875 10.7 28.7563 10.9813 28.5625 11.225C28.3188 11.4688 28.1313 11.6625 27.85 11.8C27.575 11.9313 27.2687 12 26.9562 12H3.04187C2.73312 12 2.4275 11.9313 2.14937 11.8ZM22.2938 5.29375C22.1063 5.48125 22 5.7375 22 6C22 6.2 22.0563 6.39375 22.1688 6.55625C22.2812 6.71875 22.3813 6.85 22.6187 6.925C22.8 6.94375 23 7.01875 23.1938 6.98125C23.3875 6.94375 23.5687 6.85 23.7062 6.70625C23.85 6.56875 23.9438 6.3875 23.9813 6.19375C24.0188 6 23.9437 5.8 23.925 5.61875C23.85 5.38125 23.7188 5.28125 23.5562 5.16875C23.3937 5.05625 23.2 4.94375 23 4.94375C22.7375 4.94375 22.4813 5.10625 22.2938 5.29375ZM14.2937 3.29313C14.1062 3.48063 14 3.735 14 4C14 4.1975 14.0562 4.39375 14.1687 4.55625C14.2812 4.71875 14.3812 4.85 14.6187 4.925C14.8 4.94375 15 5.01875 15.1938 4.98125C15.3875 4.94375 15.5687 4.85 15.7062 4.70625C15.85 4.56875 15.9438 4.3875 15.9813 4.195C16.0188 4.00125 15.9437 3.8 15.925 3.6175C15.85 3.43437 15.7188 3.27812 15.5562 3.16875C15.3937 3.05875 15.2 2.94375 15 2.94375C14.7375 2.94375 14.4812 3.10563 14.2937 3.29313ZM6.29375 5.29375C6.10625 5.48125 6 5.7375 6 6C6 6.2 6.05625 6.39375 6.16875 6.55625C6.28125 6.71875 6.38125 6.85 6.61875 6.925C6.8 6.94375 7 7.01875 7.19375 6.98125C7.3875 6.94375 7.56875 6.85 7.70625 6.70625C7.85 6.56875 7.94375 6.3875 7.98125 6.19375C8.01875 6 7.94375 5.8 7.925 5.61875C7.85 5.38125 7.71875 5.28125 7.55625 5.16875C7.39375 5.05625 7.2 4.94375 7 4.94375C6.7375 4.94375 6.48125 5.10625 6.29375 5.29375Z" fill="#003048"/>
</svg>
