<svg width="28" height="30" viewBox="0 0 28 30" fill="none" xmlns="http://www.w3.org/2000/svg">
<path d="M26.2468 17.1632L25.6879 16.8403C25.0228 16.4567 24.6254 15.7682 24.6254 15C24.6254 14.2318 25.0228 13.5433 25.6879 13.1597L26.2468 12.8368C27.7725 11.9549 28.2942 10.0084 27.4134 8.48263L26.3509 6.64237C25.4722 5.11981 23.5183 4.59706 21.9968 5.47575L21.4379 5.79769C20.7728 6.18231 19.977 6.18231 19.3129 5.79769C18.6478 5.41306 18.2504 4.72563 18.2504 3.95744V3.3125C18.2504 1.55512 16.8203 0.125 15.0629 0.125H12.9379C11.1805 0.125 9.75039 1.55512 9.75039 3.3125V3.9585C9.75039 4.72669 9.35302 5.41412 8.68789 5.79875C8.02277 6.18231 7.22802 6.18338 6.56289 5.79875L6.00402 5.47575C4.48252 4.59706 2.52858 5.11981 1.64883 6.64237L0.586331 8.48263C-0.294482 10.0084 0.227206 11.9559 1.75296 12.8368L2.31289 13.1597C2.97802 13.5433 3.37539 14.2318 3.37539 15C3.37539 15.7682 2.97802 16.4567 2.31289 16.8403L1.75402 17.1632C0.228268 18.0441 -0.293419 19.9916 0.587393 21.5174L1.64989 23.3576C2.52964 24.8802 4.48358 25.4029 6.00402 24.5243L6.56289 24.2023C7.22802 23.8166 8.02277 23.8187 8.68789 24.2023C9.35302 24.5869 9.75039 25.2744 9.75039 26.0426V26.6875C9.75039 28.4449 11.1805 29.875 12.9379 29.875H15.0629C16.8203 29.875 18.2504 28.4449 18.2504 26.6875V26.0415C18.2504 25.2733 18.6478 24.5859 19.3129 24.2013C19.977 23.8177 20.7728 23.8166 21.4379 24.2013L21.9968 24.5243C23.5183 25.4019 25.4722 24.8791 26.3509 23.3576L27.4134 21.5174C28.2942 19.9916 27.7725 18.0441 26.2468 17.1632ZM14.0004 20.3125C11.0711 20.3125 8.68789 17.9293 8.68789 15C8.68789 12.0707 11.0711 9.6875 14.0004 9.6875C16.9297 9.6875 19.3129 12.0707 19.3129 15C19.3129 17.9293 16.9297 20.3125 14.0004 20.3125Z" fill="#003048"/>
</svg>
