<svg width="74" height="48" viewBox="0 0 74 48" fill="none" xmlns="http://www.w3.org/2000/svg">
<g opacity="0.8">
<path d="M60.4719 20.2C60.4719 20 60.5049 19.8 60.5049 19.6C60.5049 8.76667 51.9487 0 41.3937 0C33.779 0 27.2379 4.56667 24.1656 11.1667C22.8277 10.4833 21.3246 10.0833 19.7388 10.0833C14.8661 10.0833 10.8027 13.7333 10.0263 18.5C4.17902 20.5333 0 26.1833 0 32.8333C0 41.2 6.62366 48 14.7835 48H31.7143V34.6667H23.7527L37 20.7167L50.2473 34.65H42.2857V47.9833H60.5049C67.971 47.9833 74 41.7333 74 34.0833C74 26.4333 67.9379 20.2167 60.4719 20.2Z" fill="#CCCCCC"/>
</g>
</svg>
