<svg width="105" height="105" viewBox="0 0 105 105" fill="none" xmlns="http://www.w3.org/2000/svg">
<g filter="url(#filter0_d_172_516)">
<rect x="30" y="26" width="45" height="45" rx="22.5" fill="#F67F20"/>
</g>
<path d="M46.5833 56H53.9167C56.4439 56 58.5 53.757 58.5 51V45C58.5 42.243 56.4439 40 53.9167 40H46.5833C44.0561 40 42 42.243 42 45V51C42 53.757 44.0561 56 46.5833 56ZM64 44.313V51.632C64 52.389 63.615 53.069 62.9944 53.407C62.735 53.548 62.4563 53.618 62.1795 53.618C61.7936 53.618 61.4123 53.483 61.0896 53.219C61.0557 53.191 60.3333 52.409 60.3333 52.409V43.544C60.3333 43.544 61.0538 42.755 61.0896 42.726C61.6433 42.272 62.372 42.199 62.9944 42.538C63.6168 42.877 64 43.556 64 44.313Z" fill="white"/>
<defs>
<filter id="filter0_d_172_516" x="0" y="0" width="105" height="105" filterUnits="userSpaceOnUse" color-interpolation-filters="sRGB">
<feFlood flood-opacity="0" result="BackgroundImageFix"/>
<feColorMatrix in="SourceAlpha" type="matrix" values="0 0 0 0 0 0 0 0 0 0 0 0 0 0 0 0 0 0 127 0" result="hardAlpha"/>
<feOffset dy="4"/>
<feGaussianBlur stdDeviation="15"/>
<feComposite in2="hardAlpha" operator="out"/>
<feColorMatrix type="matrix" values="0 0 0 0 1 0 0 0 0 0.278431 0 0 0 0 0.321569 0 0 0 0.3 0"/>
<feBlend mode="normal" in2="BackgroundImageFix" result="effect1_dropShadow_172_516"/>
<feBlend mode="normal" in="SourceGraphic" in2="effect1_dropShadow_172_516" result="shape"/>
</filter>
</defs>
</svg>
