<svg width="60" height="60" viewBox="0 0 60 60" fill="none" xmlns="http://www.w3.org/2000/svg">
<circle cx="30" cy="30" r="30" fill="#F67F20"/>
<path d="M21.2224 21.6875H38.7224C38.9268 21.6874 39.131 21.7004 39.3338 21.7263C39.2651 21.2439 39.0993 20.7803 38.8466 20.3636C38.5939 19.9469 38.2594 19.5857 37.8633 19.3018C37.4672 19.0179 37.0177 18.8171 36.5419 18.7116C36.0662 18.6061 35.5739 18.598 35.095 18.6879L20.7029 21.145H20.6864C19.783 21.3178 18.9797 21.8289 18.4404 22.574C19.2529 21.9961 20.2254 21.6862 21.2224 21.6875Z" fill="white"/>
<path d="M38.7227 23H21.2227C20.2947 23.001 19.4051 23.3701 18.7489 24.0262C18.0927 24.6824 17.7237 25.5721 17.7227 26.5V37C17.7237 37.9279 18.0927 38.8176 18.7489 39.4738C19.4051 40.1299 20.2947 40.499 21.2227 40.5H38.7227C39.6506 40.499 40.5403 40.1299 41.1964 39.4738C41.8526 38.8176 42.2216 37.9279 42.2227 37V26.5C42.2216 25.5721 41.8526 24.6824 41.1964 24.0262C40.5403 23.3701 39.6506 23.001 38.7227 23ZM36.125 33.5C35.7789 33.5 35.4405 33.3974 35.1528 33.2051C34.865 33.0128 34.6407 32.7395 34.5082 32.4197C34.3758 32.0999 34.3411 31.7481 34.4086 31.4086C34.4762 31.0691 34.6428 30.7573 34.8876 30.5126C35.1323 30.2678 35.4441 30.1011 35.7836 30.0336C36.1231 29.9661 36.4749 30.0008 36.7947 30.1332C37.1145 30.2657 37.3878 30.49 37.5801 30.7778C37.7724 31.0655 37.875 31.4039 37.875 31.75C37.875 32.2141 37.6906 32.6592 37.3624 32.9874C37.0342 33.3156 36.5891 33.5 36.125 33.5Z" fill="white"/>
<path d="M17.75 30.1914V24.75C17.75 23.5649 18.4062 21.5781 20.684 21.1477C22.6172 20.7852 24.5312 20.7852 24.5312 20.7852C24.5312 20.7852 25.7891 21.6602 24.75 21.6602C23.7109 21.6602 23.7383 23 24.75 23C25.7617 23 24.75 24.2852 24.75 24.2852L20.6758 28.9062L17.75 30.1914Z" fill="white"/>
</svg>
