<svg width="571" height="502" viewBox="0 0 571 502" fill="none" xmlns="http://www.w3.org/2000/svg">
<path d="M501.989 2.18596L392.959 26.3855C388.503 27.3744 385.692 31.795 386.679 36.2592L409.401 139.042C410.388 143.507 414.8 146.324 419.255 145.335L528.285 121.135C532.741 120.147 535.553 115.726 534.566 111.262L511.843 8.47859C510.856 4.01439 506.444 1.19709 501.989 2.18596Z" fill="#EBEBEB"/>
<path d="M485.536 87.01C485.27 87.122 484.992 87.2038 484.708 87.2538L482.274 87.8513L473.367 89.9485L443.285 96.801H443.042L442.957 96.5571L441.144 91.6799C435.875 77.4994 431.165 64.8552 428.099 56.5639L428.306 56.6859L420.274 58.4051L418.132 58.8318C417.884 58.8922 417.632 58.933 417.378 58.9538C417.612 58.8516 417.857 58.7779 418.108 58.7343L420.225 58.21L428.22 56.3201H428.379L428.439 56.4786L441.728 91.5701L443.541 96.4474L443.212 96.2767L473.33 89.6071L482.323 87.6806L484.757 87.1807C485.013 87.1111 485.273 87.0541 485.536 87.01Z" fill="#FAFAFA"/>
<path d="M440.024 88.0097C440.024 88.0097 440.097 88.0097 440.231 87.9365L440.852 87.7658L443.286 87.1805L452.327 85.0711L483.54 77.9504L483.321 78.243C483.078 72.7683 482.798 66.8425 482.518 60.7094C482.372 57.5636 482.238 54.4666 482.104 51.5037L482.457 51.7719L445.61 59.9535L434.658 62.3067L431.701 62.9164L430.946 63.0627H430.679L430.934 62.9773L431.689 62.7822L434.609 62.0751L445.488 59.5389L482.287 51.1745L482.627 51.1013V51.4427C482.761 54.3934 482.907 57.5392 483.053 60.6485C483.321 66.745 483.589 72.6952 483.832 78.1821V78.4137H483.601L452.339 85.3272L443.298 87.3512L440.864 87.8511L440.231 87.9731L440.024 88.0097Z" fill="#FAFAFA"/>
<path d="M456.331 105.641C456.331 105.641 456.197 105.275 455.869 104.69C455.426 103.88 454.735 103.234 453.897 102.849C453.364 102.613 452.786 102.495 452.202 102.502C451.619 102.509 451.044 102.641 450.516 102.889C449.988 103.137 449.519 103.495 449.14 103.94C448.762 104.384 448.482 104.905 448.321 105.466C448.16 106.028 448.121 106.618 448.206 107.196C448.291 107.774 448.498 108.327 448.814 108.819C449.131 109.31 449.548 109.728 450.038 110.044C450.529 110.36 451.081 110.567 451.658 110.652C452.333 110.737 453.018 110.655 453.654 110.415C454.29 110.175 454.858 109.784 455.309 109.274C455.926 108.556 456.297 107.659 456.368 106.714C456.368 106.043 456.368 105.665 456.368 105.653C456.531 105.986 456.606 106.355 456.587 106.726C456.604 107.747 456.259 108.741 455.613 109.53C455.131 110.128 454.505 110.593 453.794 110.881C453.083 111.169 452.31 111.271 451.549 111.176C450.606 111.063 449.722 110.66 449.018 110.022C448.313 109.384 447.824 108.543 447.617 107.614C447.41 106.686 447.496 105.716 447.862 104.838C448.229 103.961 448.858 103.219 449.663 102.714C450.31 102.306 451.051 102.069 451.816 102.027C452.58 101.984 453.342 102.137 454.031 102.471C454.95 102.914 455.686 103.664 456.112 104.592C456.271 104.918 456.347 105.278 456.331 105.641Z" fill="#FAFAFA"/>
<path d="M483.613 99.5444C483.613 99.5444 483.479 99.1786 483.151 98.5811C482.684 97.7606 481.968 97.1112 481.106 96.7278C480.476 96.457 479.789 96.3453 479.106 96.4027C478.423 96.4601 477.764 96.6848 477.188 97.057C476.49 97.5115 475.947 98.1694 475.633 98.9422C475.319 99.7151 475.248 100.566 475.431 101.38C475.614 102.194 476.041 102.932 476.656 103.496C477.27 104.059 478.042 104.421 478.867 104.531C479.542 104.619 480.228 104.539 480.864 104.299C481.501 104.059 482.069 103.665 482.518 103.154C483.137 102.441 483.508 101.547 483.577 100.605C483.577 99.9346 483.577 99.5444 483.577 99.5444C483.742 99.8725 483.817 100.238 483.796 100.605C483.812 101.63 483.467 102.627 482.822 103.422C482.337 104.016 481.711 104.478 481 104.766C480.29 105.054 479.519 105.157 478.758 105.068C477.815 104.955 476.931 104.551 476.227 103.913C475.522 103.275 475.033 102.434 474.826 101.506C474.619 100.577 474.705 99.6074 475.071 98.7298C475.438 97.8522 476.067 97.1101 476.872 96.6059C477.52 96.1988 478.26 95.962 479.023 95.9172C479.787 95.8725 480.549 96.0212 481.24 96.3498C482.162 96.7941 482.899 97.5495 483.321 98.4836C483.508 98.806 483.609 99.1714 483.613 99.5444Z" fill="#FAFAFA"/>
<path d="M491.17 45.0171C491.703 47.4103 491.516 49.9081 490.632 52.1946C489.748 54.4812 488.208 56.4539 486.205 57.8633C484.203 59.2728 481.828 60.0558 479.382 60.1134C476.936 60.1709 474.527 59.5004 472.461 58.1867C470.394 56.8729 468.763 54.9748 467.773 52.7323C466.784 50.4898 466.479 48.0037 466.899 45.588C467.32 43.1724 468.445 40.9358 470.133 39.1609C471.822 37.386 473.997 36.1525 476.385 35.6163C477.972 35.2599 479.614 35.2205 481.216 35.5002C482.818 35.7799 484.349 36.3732 485.722 37.2463C487.095 38.1194 488.283 39.2551 489.218 40.5884C490.153 41.9218 490.816 43.4267 491.17 45.0171Z" fill="#FAFAFA"/>
<path d="M484.635 41.7371C484.351 42.5453 483.975 43.3185 483.516 44.0415C482.749 45.4194 481.666 47.3093 480.437 49.3821L479.111 51.589L478.965 51.8207L478.733 51.6988C476.891 50.7805 475.125 49.7164 473.452 48.5164C475.364 49.2756 477.218 50.1721 479.001 51.1989L478.624 51.3086L479.926 49.0895C481.143 47.0166 482.36 45.1511 483.163 43.8221C483.575 43.0744 484.069 42.3751 484.635 41.7371Z" fill="#E0E0E0"/>
<path d="M68.5835 184.774C66.3322 176.811 55.9766 177.58 55.9766 177.58L56.2564 183.128C62.2313 182.091 65.9915 189.102 65.9915 189.102L68.5835 184.774Z" fill="#E0E0E0"/>
<path d="M220.317 92.8016C232.303 96.4595 239.787 82.5838 239.787 82.5838L232.485 78.426C228.92 86.9612 216.958 85.9247 216.958 85.9247L220.317 92.8016Z" fill="#E0E0E0"/>
<path d="M319.809 167.155C317.497 160.534 308.796 161.729 308.796 161.729L309.319 166.411C314.321 165.192 317.837 170.959 317.837 170.959L319.809 167.155Z" fill="#E0E0E0"/>
<path d="M182.337 12.0104C180.013 5.38963 171.312 6.58454 171.312 6.58454L171.836 11.2545C176.837 10.0352 180.354 15.8147 180.354 15.8147L182.337 12.0104Z" fill="#E0E0E0"/>
<path d="M78.4764 96.7643C76.1643 90.1313 67.5244 91.3384 67.5244 91.3384L68.0477 96.0083C73.0491 94.789 76.5658 100.556 76.5658 100.556L78.4764 96.7643Z" fill="#EBEBEB"/>
<path d="M56.6577 34.8359C49.7458 35.9821 49.3564 44.7733 49.3564 44.7733L54.0414 45.0659C53.7372 39.9204 59.992 37.4574 59.992 37.4574L56.6577 34.8359Z" fill="#EBEBEB"/>
<path d="M6.88737 240.886C18.8737 244.544 26.3575 230.668 26.3575 230.668L19.0562 226.51C15.4907 235.046 3.5166 234.009 3.5166 234.009L6.88737 240.886Z" fill="#EBEBEB"/>
<path d="M348.356 93.5697C349.172 88.0097 342.552 85.6199 342.552 85.6199L341.201 89.1315C345.18 90.1435 345.545 95.5206 345.545 95.5206L348.356 93.5697Z" fill="#E0E0E0"/>
<path d="M308.516 32.4827C303.843 35.5919 306.484 42.1274 306.484 42.1274L310 40.7861C308.09 37.1282 311.85 33.2752 311.85 33.2752L308.516 32.4827Z" fill="#EBEBEB"/>
<path d="M511.285 156.961L495.101 204.722L542.961 214.244L545.711 163.814L511.285 156.961Z" fill="#F5F5F5"/>
<path d="M540.418 170.154C540.334 170.647 540.148 171.117 539.87 171.532C539.221 172.715 538.401 173.796 537.436 174.739C536.016 176.173 534.283 177.259 532.374 177.909C530.013 178.663 527.497 178.789 525.073 178.275C522.627 177.856 520.327 176.819 518.392 175.263C516.845 173.964 515.662 172.283 514.961 170.386C514.488 169.123 514.209 167.795 514.133 166.448C514.058 165.957 514.1 165.456 514.255 164.984C514.48 166.749 514.913 168.48 515.545 170.142C516.284 171.899 517.442 173.448 518.915 174.653C520.763 176.078 522.932 177.024 525.231 177.409C527.513 177.896 529.881 177.804 532.119 177.141C533.929 176.561 535.59 175.591 536.986 174.3C538.274 173.045 539.425 171.655 540.418 170.154Z" fill="white"/>
<path d="M557.515 501.537C557.515 501.72 432.699 501.854 278.763 501.854C124.828 501.854 0 501.72 0 501.537C0 501.354 124.791 501.22 278.763 501.22C432.736 501.22 557.515 501.366 557.515 501.537Z" fill="#263238"/>
<path d="M317.217 125.589H20.4805V358.354H317.217V125.589Z" fill="#FAFAFA"/>
<path d="M317.217 358.354C317.217 356.159 317.12 266.004 316.961 125.589L317.217 125.857H20.5044L20.8208 125.54C20.8208 209.477 20.8208 288.854 20.8208 358.305L20.5409 358.012L317.278 358.305L20.5409 358.586H20.2002V358.305C20.2002 288.805 20.2002 209.477 20.2002 125.54V125.223H20.5409L317.253 125.284H317.521V125.54C317.326 266.004 317.229 356.171 317.217 358.354Z" fill="#263238"/>
<path d="M76.6638 240.191V244.069H74.1083V240.155L69.8857 233.131H72.5751L75.4834 238.009L78.3917 233.131H80.8255L76.6638 240.191Z" fill="black"/>
<path d="M80.2046 239.862C80.146 238.938 80.366 238.017 80.8359 237.22C81.3058 236.422 82.0039 235.785 82.8398 235.39C83.6757 234.995 84.6108 234.86 85.5238 235.004C86.4368 235.148 87.2856 235.563 87.9601 236.196C88.6347 236.83 89.1038 237.651 89.3067 238.555C89.5097 239.458 89.437 240.402 89.0982 241.263C88.7594 242.125 88.17 242.865 87.4066 243.386C86.6431 243.908 85.7408 244.188 84.8165 244.19C84.2248 244.232 83.6307 244.151 83.0716 243.953C82.5125 243.754 82.0004 243.441 81.5674 243.035C81.1344 242.629 80.7899 242.137 80.5553 241.591C80.3208 241.045 80.2014 240.456 80.2046 239.862ZM86.9461 239.862C86.9106 239.444 86.7541 239.045 86.4959 238.714C86.2376 238.384 85.8887 238.136 85.492 238.001C85.0953 237.866 84.668 237.85 84.2623 237.955C83.8567 238.06 83.4903 238.281 83.2081 238.591C82.9259 238.901 82.7401 239.287 82.6735 239.702C82.6069 240.116 82.6623 240.541 82.833 240.924C83.0037 241.307 83.2823 241.633 83.6346 241.86C83.9869 242.087 84.3976 242.206 84.8165 242.203C85.1151 242.206 85.4109 242.146 85.6847 242.027C85.9584 241.908 86.2039 241.732 86.405 241.511C86.6061 241.289 86.7583 241.028 86.8515 240.744C86.9448 240.46 86.977 240.159 86.9461 239.862Z" fill="black"/>
<path d="M99.4678 235.667V244.068H97.1557V243.069C96.6502 243.599 95.9951 243.962 95.2781 244.109C94.5611 244.255 93.8164 244.179 93.1439 243.89C92.4713 243.601 91.9031 243.113 91.5153 242.491C91.1274 241.869 90.9385 241.143 90.9739 240.411V235.667H93.4077V240.057C93.4077 241.459 94.0283 242.081 95.0992 242.081C96.17 242.081 97.034 241.362 97.034 239.813V235.667H99.4678Z" fill="black"/>
<path d="M106.927 235.545V237.789H106.379C106.07 237.76 105.758 237.802 105.468 237.911C105.177 238.02 104.914 238.194 104.7 238.419C104.486 238.644 104.325 238.915 104.23 239.212C104.136 239.508 104.109 239.822 104.153 240.13V244.105H101.719V235.704H104.043V236.814C104.383 236.381 104.824 236.039 105.327 235.818C105.83 235.597 106.379 235.503 106.927 235.545Z" fill="black"/>
<path d="M112.33 238.545C112.265 237.349 112.559 236.16 113.174 235.133C113.79 234.106 114.7 233.287 115.785 232.784C116.87 232.28 118.081 232.114 119.261 232.308C120.441 232.501 121.536 233.045 122.404 233.869C123.273 234.693 123.874 235.759 124.131 236.929C124.388 238.099 124.289 239.32 123.846 240.433C123.403 241.546 122.638 242.5 121.647 243.172C120.657 243.844 119.489 244.203 118.293 244.203C117.525 244.248 116.756 244.134 116.033 243.87C115.31 243.606 114.649 243.196 114.091 242.666C113.532 242.136 113.087 241.497 112.785 240.788C112.482 240.079 112.327 239.316 112.33 238.545ZM121.7 238.545C121.686 237.87 121.473 237.215 121.088 236.661C120.703 236.107 120.163 235.679 119.537 235.431C118.91 235.183 118.224 235.127 117.566 235.268C116.907 235.409 116.305 235.742 115.834 236.226C115.364 236.709 115.046 237.32 114.921 237.984C114.797 238.647 114.87 239.333 115.133 239.954C115.396 240.576 115.836 241.106 116.398 241.478C116.96 241.849 117.619 242.047 118.293 242.044C118.75 242.055 119.204 241.971 119.628 241.798C120.051 241.624 120.434 241.365 120.753 241.037C121.071 240.708 121.319 240.318 121.48 239.889C121.641 239.46 121.712 239.003 121.688 238.545H121.7Z" fill="black"/>
<path d="M131.18 235.545V237.789C130.985 237.789 130.827 237.789 130.645 237.789C130.334 237.758 130.021 237.798 129.729 237.907C129.436 238.015 129.172 238.188 128.957 238.414C128.741 238.639 128.579 238.911 128.484 239.208C128.388 239.506 128.361 239.821 128.405 240.13V244.105H125.972V235.704H128.284V236.814C128.627 236.382 129.07 236.041 129.575 235.82C130.08 235.599 130.631 235.505 131.18 235.545Z" fill="black"/>
<path d="M141.085 232.448V244.032H138.724V243.056C138.398 243.427 137.992 243.719 137.536 243.909C137.081 244.099 136.588 244.183 136.096 244.154C134.991 244.095 133.951 243.614 133.19 242.81C132.429 242.006 132.005 240.94 132.005 239.831C132.005 238.723 132.429 237.657 133.19 236.853C133.951 236.049 134.991 235.568 136.096 235.509C136.564 235.482 137.032 235.559 137.467 235.734C137.903 235.909 138.294 236.178 138.615 236.521V232.448H141.085ZM138.651 239.825C138.618 239.406 138.463 239.006 138.206 238.674C137.949 238.342 137.601 238.092 137.204 237.955C136.808 237.819 136.38 237.801 135.973 237.904C135.567 238.008 135.199 238.228 134.916 238.538C134.632 238.848 134.446 239.234 134.378 239.649C134.311 240.064 134.366 240.489 134.536 240.873C134.707 241.257 134.985 241.583 135.338 241.811C135.691 242.038 136.102 242.158 136.522 242.154C136.822 242.167 137.121 242.116 137.4 242.004C137.679 241.893 137.931 241.723 138.139 241.506C138.347 241.289 138.507 241.03 138.608 240.747C138.709 240.464 138.749 240.162 138.724 239.862L138.651 239.825Z" fill="black"/>
<path d="M151.49 240.545H145.15C145.28 241.076 145.599 241.541 146.047 241.853C146.495 242.166 147.042 242.303 147.584 242.24C147.972 242.255 148.359 242.191 148.721 242.05C149.083 241.91 149.413 241.696 149.689 241.423L150.979 242.825C150.537 243.292 149.999 243.656 149.402 243.892C148.805 244.128 148.164 244.23 147.523 244.19C144.627 244.19 142.741 242.362 142.741 239.862C142.733 239.28 142.845 238.702 143.069 238.164C143.293 237.627 143.624 237.141 144.042 236.737C144.461 236.332 144.957 236.018 145.502 235.813C146.046 235.608 146.626 235.517 147.207 235.546C147.786 235.514 148.366 235.605 148.909 235.812C149.452 236.02 149.945 236.339 150.356 236.749C150.768 237.159 151.089 237.652 151.299 238.194C151.509 238.737 151.603 239.317 151.575 239.899C151.539 240.081 151.502 240.35 151.49 240.545ZM145.113 239.13H149.251C149.16 238.647 148.903 238.211 148.526 237.898C148.148 237.584 147.673 237.412 147.182 237.412C146.692 237.412 146.216 237.584 145.839 237.898C145.461 238.211 145.204 238.647 145.113 239.13Z" fill="black"/>
<path d="M158.353 235.545V237.789C158.158 237.789 158 237.789 157.805 237.789C157.496 237.76 157.184 237.802 156.893 237.911C156.603 238.02 156.34 238.194 156.126 238.419C155.912 238.644 155.751 238.915 155.656 239.212C155.561 239.508 155.535 239.822 155.578 240.13V244.105H153.145V235.704H155.457V236.814C155.8 236.382 156.243 236.041 156.748 235.82C157.253 235.599 157.803 235.505 158.353 235.545Z" fill="black"/>
<path d="M163.975 233.131C163.979 232.941 164.022 232.754 164.101 232.581C164.181 232.408 164.295 232.254 164.436 232.127C164.578 232 164.744 231.904 164.924 231.844C165.104 231.784 165.294 231.761 165.484 231.778C165.67 231.758 165.859 231.776 166.039 231.833C166.218 231.889 166.384 231.982 166.525 232.106C166.667 232.23 166.782 232.381 166.862 232.551C166.942 232.722 166.987 232.907 166.992 233.095C166.992 233.496 166.833 233.88 166.551 234.164C166.268 234.447 165.884 234.607 165.484 234.607C165.083 234.607 164.7 234.447 164.417 234.164C164.134 233.88 163.975 233.496 163.975 233.095V233.131ZM164.267 235.668H166.7V244.069H164.267V235.668Z" fill="black"/>
<path d="M168.148 243.288L168.964 241.532C169.841 242.064 170.847 242.347 171.872 242.349C172.992 242.349 173.418 242.044 173.418 241.581C173.418 240.203 168.355 241.581 168.355 238.252C168.355 236.667 169.779 235.546 172.225 235.546C173.344 235.519 174.451 235.771 175.45 236.277L174.647 238.009C173.906 237.587 173.065 237.372 172.213 237.387C171.13 237.387 170.655 237.728 170.655 238.167C170.655 239.594 175.717 238.167 175.717 241.52C175.717 243.081 174.269 244.19 171.763 244.19C170.5 244.211 169.254 243.9 168.148 243.288Z" fill="black"/>
<path d="M181.121 238.545C181.201 237.372 181.622 236.248 182.333 235.312C183.044 234.376 184.013 233.67 185.12 233.281C186.228 232.891 187.425 232.836 188.563 233.122C189.702 233.407 190.732 234.021 191.525 234.887L189.907 236.387C189.568 235.994 189.147 235.681 188.674 235.47C188.201 235.26 187.687 235.156 187.169 235.168C186.694 235.139 186.218 235.209 185.771 235.372C185.323 235.535 184.914 235.787 184.567 236.115C184.221 236.442 183.945 236.836 183.756 237.274C183.568 237.712 183.47 238.184 183.47 238.661C183.47 239.138 183.568 239.61 183.756 240.048C183.945 240.486 184.221 240.88 184.567 241.207C184.914 241.534 185.323 241.787 185.771 241.95C186.218 242.113 186.694 242.182 187.169 242.154C187.693 242.158 188.211 242.044 188.685 241.821C189.159 241.597 189.577 241.269 189.907 240.862L191.525 242.362C190.734 243.233 189.704 243.852 188.564 244.141C187.424 244.43 186.224 244.376 185.114 243.986C184.004 243.596 183.034 242.887 182.324 241.947C181.614 241.008 181.195 239.88 181.121 238.704V238.545Z" fill="black"/>
<path d="M192.133 239.862C192.075 238.937 192.295 238.016 192.765 237.218C193.236 236.421 193.935 235.783 194.771 235.388C195.608 234.994 196.544 234.86 197.457 235.005C198.37 235.15 199.219 235.566 199.893 236.201C200.567 236.835 201.036 237.658 201.237 238.562C201.439 239.466 201.364 240.41 201.024 241.272C200.683 242.133 200.092 242.872 199.326 243.393C198.561 243.913 197.658 244.191 196.733 244.19C196.142 244.231 195.55 244.148 194.992 243.949C194.434 243.749 193.924 243.436 193.492 243.03C193.06 242.624 192.717 242.133 192.483 241.588C192.249 241.043 192.13 240.455 192.133 239.862ZM198.875 239.862C198.842 239.443 198.687 239.044 198.431 238.712C198.175 238.38 197.827 238.13 197.431 237.993C197.035 237.856 196.608 237.837 196.202 237.94C195.795 238.042 195.428 238.261 195.144 238.57C194.86 238.879 194.672 239.264 194.603 239.678C194.534 240.092 194.587 240.517 194.756 240.901C194.925 241.286 195.202 241.612 195.553 241.841C195.904 242.07 196.314 242.192 196.733 242.191C197.031 242.196 197.328 242.137 197.602 242.019C197.876 241.902 198.122 241.727 198.325 241.507C198.527 241.287 198.68 241.027 198.775 240.743C198.87 240.46 198.904 240.159 198.875 239.862Z" fill="black"/>
<path d="M211.518 239.252V244.068H209.084V239.63C209.084 238.277 208.464 237.643 207.393 237.643C206.322 237.643 205.385 238.362 205.385 239.911V244.068H202.951V235.667H205.275V236.643C205.635 236.275 206.068 235.986 206.546 235.797C207.024 235.608 207.536 235.522 208.05 235.545C208.534 235.512 209.02 235.587 209.471 235.765C209.923 235.943 210.33 236.22 210.662 236.574C210.993 236.929 211.243 237.354 211.391 237.817C211.539 238.28 211.582 238.77 211.518 239.252Z" fill="black"/>
<path d="M216.374 235.497V235.85H218.528V237.728H216.435V244.069H214.001V237.728H212.711V235.85H214.001V235.472C213.971 235.043 214.037 234.613 214.191 234.212C214.346 233.811 214.587 233.448 214.897 233.151C215.207 232.853 215.578 232.627 215.985 232.489C216.391 232.351 216.823 232.304 217.25 232.351C217.896 232.328 218.536 232.484 219.1 232.802L218.467 234.57C218.175 234.375 217.832 234.273 217.481 234.278C216.763 234.278 216.374 234.668 216.374 235.497ZM220.694 233.131C220.698 232.941 220.741 232.754 220.821 232.581C220.9 232.408 221.014 232.254 221.155 232.127C221.297 232 221.463 231.904 221.643 231.844C221.823 231.784 222.014 231.761 222.203 231.778C222.389 231.758 222.578 231.776 222.758 231.833C222.937 231.889 223.103 231.982 223.244 232.106C223.386 232.23 223.501 232.381 223.581 232.551C223.662 232.722 223.706 232.907 223.712 233.095C223.712 233.496 223.553 233.88 223.27 234.164C222.987 234.447 222.603 234.607 222.203 234.607C221.802 234.607 221.419 234.447 221.136 234.164C220.853 233.88 220.694 233.496 220.694 233.095V233.131ZM220.986 235.668H223.42V244.069H220.986V235.668Z" fill="black"/>
<path d="M230.867 235.546V237.789C230.672 237.789 230.514 237.789 230.332 237.789C230.022 237.76 229.711 237.802 229.42 237.911C229.129 238.02 228.866 238.194 228.652 238.419C228.438 238.644 228.277 238.915 228.182 239.212C228.088 239.508 228.061 239.822 228.105 240.13V244.105H225.671V235.704H227.995V236.814C228.334 236.383 228.773 236.042 229.274 235.821C229.774 235.6 230.321 235.506 230.867 235.546Z" fill="black"/>
<path d="M246.479 239.252V244.069H244.046V239.63C244.046 238.277 243.437 237.643 242.464 237.643C241.49 237.643 240.602 238.35 240.602 239.85V244.069H238.168V239.63C238.168 238.277 237.584 237.643 236.574 237.643C235.564 237.643 234.736 238.35 234.736 239.85V244.069H232.303V235.668H234.627V236.631C234.96 236.27 235.368 235.985 235.822 235.798C236.276 235.611 236.765 235.525 237.255 235.546C237.794 235.517 238.331 235.628 238.814 235.867C239.298 236.106 239.712 236.466 240.018 236.911C240.385 236.469 240.847 236.117 241.37 235.88C241.893 235.644 242.462 235.529 243.036 235.546C245.044 235.546 246.479 236.692 246.479 239.252Z" fill="black"/>
<path d="M256.908 240.545H250.568C250.698 241.076 251.017 241.541 251.465 241.853C251.913 242.165 252.459 242.303 253.002 242.239C253.39 242.255 253.777 242.19 254.139 242.05C254.501 241.909 254.83 241.696 255.107 241.422L256.397 242.825C255.955 243.291 255.417 243.656 254.82 243.892C254.223 244.127 253.581 244.229 252.941 244.19C250.045 244.19 248.158 242.361 248.158 239.862C248.153 239.279 248.266 238.701 248.491 238.163C248.717 237.626 249.049 237.14 249.468 236.736C249.888 236.332 250.385 236.018 250.93 235.813C251.475 235.608 252.055 235.517 252.637 235.545C253.216 235.514 253.795 235.605 254.337 235.812C254.879 236.02 255.372 236.339 255.783 236.749C256.193 237.16 256.513 237.652 256.722 238.195C256.931 238.737 257.023 239.318 256.993 239.898C256.956 240.081 256.92 240.349 256.908 240.545ZM250.544 239.13H254.669C254.585 238.643 254.332 238.201 253.955 237.882C253.577 237.564 253.1 237.389 252.606 237.389C252.113 237.389 251.635 237.564 251.258 237.882C250.88 238.201 250.627 238.643 250.544 239.13Z" fill="black"/>
<path d="M267.105 232.448V244.032H264.793V243.056C264.467 243.427 264.061 243.719 263.606 243.909C263.15 244.099 262.657 244.183 262.165 244.154C261.06 244.095 260.021 243.614 259.259 242.81C258.498 242.006 258.074 240.94 258.074 239.831C258.074 238.723 258.498 237.657 259.259 236.853C260.021 236.049 261.06 235.568 262.165 235.509C262.633 235.482 263.101 235.559 263.537 235.734C263.972 235.909 264.364 236.178 264.684 236.521V232.448H267.105ZM264.672 239.825C264.639 239.406 264.484 239.006 264.227 238.674C263.97 238.342 263.622 238.092 263.225 237.955C262.828 237.819 262.401 237.801 261.994 237.904C261.587 238.008 261.22 238.228 260.936 238.538C260.653 238.848 260.466 239.234 260.399 239.649C260.331 240.064 260.386 240.489 260.557 240.873C260.727 241.257 261.006 241.583 261.359 241.811C261.711 242.038 262.123 242.158 262.542 242.154C262.84 242.164 263.137 242.11 263.413 241.997C263.689 241.883 263.938 241.713 264.143 241.497C264.349 241.28 264.507 241.023 264.606 240.741C264.706 240.459 264.745 240.16 264.72 239.862L264.672 239.825Z" fill="black"/>
<path d="M268.992 242.764C268.992 242.366 269.15 241.985 269.431 241.703C269.711 241.422 270.092 241.264 270.489 241.264C270.886 241.264 271.267 241.422 271.547 241.703C271.828 241.985 271.986 242.366 271.986 242.764C271.986 243.162 271.828 243.543 271.547 243.824C271.267 244.106 270.886 244.264 270.489 244.264C270.092 244.264 269.711 244.106 269.431 243.824C269.15 243.543 268.992 243.162 268.992 242.764ZM268.992 233.131H271.888L271.402 240.264H269.467L268.992 233.131Z" fill="black"/>
<path d="M93.9073 258.505H90.3418V257.578H98.5679V258.505H94.9781V267.723H93.9073V258.505Z" fill="black"/>
<path d="M107.013 263.297V267.723H105.99V263.407C106.037 263.088 106.012 262.763 105.916 262.456C105.82 262.149 105.656 261.867 105.435 261.633C105.215 261.398 104.945 261.216 104.645 261.101C104.345 260.986 104.023 260.941 103.703 260.968C103.333 260.923 102.958 260.965 102.606 261.088C102.255 261.211 101.937 261.414 101.676 261.68C101.415 261.947 101.218 262.269 101.101 262.623C100.984 262.978 100.95 263.354 101.001 263.724V267.723H99.9668V256.969H101.001V261.431C101.314 260.971 101.741 260.601 102.24 260.357C102.74 260.113 103.294 260.004 103.849 260.041C104.282 260 104.719 260.056 105.128 260.206C105.536 260.357 105.906 260.597 106.209 260.909C106.513 261.222 106.743 261.598 106.882 262.012C107.021 262.425 107.066 262.864 107.013 263.297Z" fill="black"/>
<path d="M115.603 262.992V267.723H114.618V266.504C114.334 266.944 113.936 267.298 113.466 267.527C112.997 267.757 112.473 267.855 111.953 267.808C110.225 267.808 109.166 266.906 109.166 265.589C109.166 264.272 109.92 263.431 112.111 263.431H114.545V262.931C114.545 261.627 113.815 260.919 112.391 260.919C111.468 260.904 110.57 261.22 109.86 261.809L109.397 261.041C110.28 260.355 111.371 259.993 112.488 260.017C112.9 259.95 113.321 259.98 113.719 260.104C114.117 260.227 114.481 260.442 114.783 260.73C115.084 261.018 115.315 261.372 115.458 261.765C115.6 262.157 115.65 262.577 115.603 262.992ZM114.569 265.431V264.211H112.135C110.663 264.211 110.188 264.785 110.188 265.565C110.188 266.345 110.894 267.004 112.111 267.004C112.627 267.032 113.139 266.895 113.572 266.612C114.005 266.329 114.338 265.915 114.52 265.431H114.569Z" fill="black"/>
<path d="M125.339 263.297V267.723H124.317V263.407C124.364 263.088 124.338 262.763 124.242 262.456C124.146 262.149 123.982 261.867 123.762 261.633C123.542 261.398 123.271 261.216 122.971 261.101C122.671 260.986 122.349 260.941 122.029 260.968C121.662 260.93 121.291 260.975 120.945 261.101C120.598 261.227 120.284 261.431 120.028 261.696C119.771 261.962 119.578 262.282 119.463 262.634C119.348 262.985 119.314 263.358 119.364 263.724V267.723H118.342V260.102H119.315V261.505C119.625 261.025 120.057 260.637 120.566 260.38C121.075 260.123 121.643 260.006 122.211 260.041C122.642 260.006 123.075 260.066 123.479 260.219C123.883 260.372 124.248 260.613 124.547 260.925C124.847 261.236 125.073 261.611 125.21 262.021C125.347 262.432 125.391 262.867 125.339 263.297Z" fill="black"/>
<path d="M130.949 263.894L129.148 265.54V267.723H128.126V256.969H129.148V264.285L133.699 260.127H134.916L131.667 263.236L135.22 267.747H134.004L130.949 263.894Z" fill="black"/>
<path d="M135.524 266.845L135.987 266.04C136.78 266.602 137.729 266.9 138.7 266.894C140.149 266.894 140.733 266.406 140.733 265.674C140.733 263.687 135.804 265.248 135.804 262.236C135.804 261.017 136.875 260.066 138.81 260.066C139.755 260.047 140.686 260.292 141.499 260.773L141.061 261.602C140.395 261.16 139.61 260.93 138.81 260.944C137.435 260.944 136.826 261.48 136.826 262.163C136.826 264.223 141.767 262.663 141.767 265.589C141.767 266.918 140.55 267.772 138.627 267.772C137.52 267.808 136.431 267.483 135.524 266.845Z" fill="black"/>
<path d="M148.727 258.505V262.492H153.972V263.419H148.727V267.723H147.656V257.578H154.605V258.505H148.727Z" fill="black"/>
<path d="M155.566 263.907C155.571 263.14 155.803 262.392 156.232 261.757C156.661 261.122 157.269 260.629 157.978 260.34C158.687 260.051 159.465 259.979 160.215 260.133C160.964 260.287 161.652 260.661 162.189 261.207C162.727 261.752 163.091 262.446 163.236 263.199C163.381 263.952 163.299 264.731 163.002 265.437C162.704 266.144 162.205 266.746 161.566 267.168C160.927 267.591 160.177 267.813 159.412 267.808C158.899 267.822 158.389 267.73 157.913 267.538C157.437 267.347 157.005 267.059 156.645 266.693C156.284 266.327 156.002 265.891 155.817 265.412C155.631 264.933 155.546 264.42 155.566 263.907ZM162.271 263.907C162.245 263.351 162.057 262.815 161.729 262.365C161.401 261.916 160.949 261.573 160.429 261.378C159.908 261.184 159.342 261.147 158.801 261.273C158.26 261.398 157.767 261.68 157.384 262.083C157.002 262.487 156.746 262.994 156.648 263.542C156.55 264.089 156.616 264.654 156.835 265.165C157.055 265.676 157.42 266.111 157.885 266.417C158.349 266.722 158.893 266.884 159.448 266.882C159.834 266.889 160.216 266.817 160.572 266.668C160.928 266.519 161.249 266.298 161.514 266.018C161.78 265.738 161.985 265.406 162.115 265.042C162.245 264.679 162.299 264.292 162.271 263.907Z" fill="black"/>
<path d="M169.232 260.041V261.041H168.988C168.625 261.019 168.262 261.078 167.925 261.215C167.588 261.351 167.286 261.562 167.041 261.831C166.796 262.1 166.614 262.42 166.509 262.769C166.404 263.118 166.378 263.485 166.433 263.845V267.735H165.398V260.114H166.384V261.602C166.646 261.084 167.059 260.658 167.567 260.38C168.075 260.101 168.655 259.983 169.232 260.041Z" fill="black"/>
<path d="M178.675 264.211V267.723H177.665V264.211L173.625 257.578H174.769L178.237 263.273L181.705 257.578H182.776L178.675 264.211Z" fill="black"/>
<path d="M182.533 263.906C182.535 263.141 182.764 262.393 183.19 261.757C183.616 261.121 184.221 260.626 184.927 260.334C185.634 260.042 186.411 259.966 187.16 260.116C187.91 260.266 188.598 260.635 189.139 261.177C189.679 261.718 190.047 262.408 190.197 263.159C190.347 263.91 190.271 264.689 189.98 265.397C189.688 266.105 189.194 266.711 188.56 267.137C187.925 267.564 187.179 267.794 186.415 267.796C185.9 267.815 185.387 267.727 184.907 267.538C184.428 267.349 183.992 267.064 183.628 266.699C183.264 266.334 182.979 265.897 182.79 265.417C182.602 264.936 182.514 264.422 182.533 263.906ZM189.238 263.906C189.212 263.351 189.023 262.815 188.695 262.365C188.368 261.916 187.916 261.572 187.395 261.378C186.875 261.184 186.309 261.147 185.767 261.273C185.226 261.398 184.734 261.68 184.351 262.083C183.968 262.486 183.712 262.993 183.614 263.541C183.517 264.089 183.582 264.654 183.802 265.165C184.022 265.676 184.386 266.111 184.851 266.416C185.315 266.722 185.859 266.883 186.415 266.882C186.8 266.889 187.183 266.816 187.539 266.668C187.894 266.519 188.215 266.298 188.481 266.018C188.746 265.738 188.951 265.405 189.081 265.042C189.212 264.678 189.265 264.292 189.238 263.906Z" fill="black"/>
<path d="M199.228 260.102V267.723H198.242V266.333C197.96 266.801 197.556 267.185 197.074 267.442C196.592 267.7 196.05 267.822 195.504 267.796C195.065 267.843 194.62 267.79 194.203 267.641C193.787 267.493 193.409 267.252 193.098 266.937C192.787 266.622 192.551 266.24 192.407 265.821C192.263 265.402 192.216 264.956 192.267 264.516V260.102H193.302V264.419C193.255 264.737 193.28 265.062 193.376 265.369C193.472 265.677 193.637 265.958 193.857 266.193C194.077 266.427 194.347 266.609 194.647 266.724C194.947 266.839 195.269 266.885 195.589 266.857C195.951 266.882 196.313 266.827 196.65 266.694C196.987 266.561 197.29 266.354 197.537 266.089C197.784 265.824 197.969 265.507 198.079 265.161C198.188 264.815 198.219 264.449 198.169 264.089V260.09L199.228 260.102Z" fill="black"/>
<path d="M205.933 260.041V261.041H205.653C205.289 261.017 204.925 261.075 204.586 261.21C204.248 261.346 203.944 261.557 203.698 261.826C203.451 262.095 203.268 262.416 203.162 262.766C203.056 263.115 203.03 263.484 203.086 263.845V267.735H202.063V260.114H203.049V261.602C203.314 261.078 203.732 260.648 204.247 260.369C204.763 260.09 205.351 259.976 205.933 260.041Z" fill="black"/>
<path d="M211.008 262.651C210.974 261.59 211.257 260.544 211.82 259.645C212.383 258.747 213.201 258.038 214.17 257.608C215.138 257.178 216.212 257.048 217.254 257.234C218.297 257.42 219.26 257.913 220.021 258.651C220.782 259.389 221.306 260.338 221.525 261.376C221.744 262.414 221.65 263.494 221.253 264.478C220.856 265.461 220.175 266.304 219.297 266.897C218.419 267.49 217.384 267.808 216.325 267.808C215.633 267.84 214.942 267.729 214.293 267.484C213.645 267.238 213.054 266.862 212.556 266.379C212.058 265.896 211.664 265.316 211.398 264.675C211.131 264.034 210.999 263.345 211.008 262.651ZM220.572 262.651C220.587 261.803 220.349 260.97 219.889 260.259C219.43 259.547 218.769 258.989 217.992 258.655C217.214 258.321 216.355 258.227 215.523 258.384C214.692 258.541 213.927 258.943 213.324 259.538C212.722 260.133 212.31 260.895 212.141 261.725C211.972 262.556 212.053 263.418 212.375 264.202C212.697 264.986 213.245 265.656 213.948 266.126C214.652 266.597 215.479 266.847 216.325 266.845C216.883 266.865 217.439 266.771 217.96 266.568C218.48 266.365 218.954 266.058 219.351 265.665C219.749 265.272 220.062 264.802 220.272 264.284C220.482 263.766 220.584 263.21 220.572 262.651Z" fill="black"/>
<path d="M227.654 260.041V261.041H227.411C227.047 261.017 226.683 261.075 226.344 261.21C226.006 261.346 225.702 261.557 225.455 261.826C225.209 262.095 225.026 262.416 224.92 262.766C224.814 263.115 224.788 263.484 224.843 263.846V267.735H223.821V260.114H224.807V261.602C225.068 261.083 225.48 260.656 225.988 260.378C226.497 260.099 227.078 259.982 227.654 260.041Z" fill="black"/>
<path d="M236.367 256.969V267.723H235.394V266.211C235.088 266.72 234.651 267.137 234.128 267.418C233.605 267.7 233.017 267.834 232.424 267.808C231.398 267.808 230.414 267.4 229.688 266.673C228.962 265.946 228.555 264.959 228.555 263.931C228.555 262.903 228.962 261.916 229.688 261.189C230.414 260.462 231.398 260.054 232.424 260.054C232.995 260.034 233.561 260.162 234.068 260.425C234.575 260.687 235.006 261.076 235.321 261.553V256.981L236.367 256.969ZM235.357 263.907C235.331 263.351 235.142 262.815 234.815 262.365C234.487 261.916 234.035 261.573 233.514 261.378C232.994 261.184 232.428 261.147 231.887 261.273C231.345 261.398 230.853 261.68 230.47 262.083C230.087 262.486 229.831 262.994 229.734 263.541C229.636 264.089 229.701 264.654 229.921 265.165C230.141 265.676 230.506 266.111 230.97 266.417C231.435 266.722 231.978 266.883 232.534 266.882C232.919 266.889 233.302 266.817 233.658 266.668C234.014 266.519 234.335 266.298 234.6 266.018C234.866 265.738 235.07 265.406 235.201 265.042C235.331 264.679 235.384 264.292 235.357 263.907Z" fill="black"/>
<path d="M245.81 264.224H239.446C239.466 264.596 239.559 264.96 239.721 265.296C239.883 265.632 240.11 265.932 240.388 266.179C240.667 266.427 240.991 266.616 241.343 266.737C241.695 266.857 242.068 266.906 242.439 266.882C242.876 266.894 243.31 266.811 243.711 266.639C244.113 266.466 244.472 266.208 244.763 265.882L245.347 266.54C244.803 267.119 244.1 267.523 243.326 267.702C242.553 267.88 241.744 267.825 241.002 267.543C240.26 267.261 239.618 266.766 239.156 266.118C238.695 265.471 238.436 264.701 238.411 263.907C238.383 263.403 238.458 262.899 238.633 262.426C238.809 261.953 239.08 261.521 239.429 261.158C239.779 260.795 240.2 260.508 240.666 260.316C241.131 260.124 241.631 260.03 242.135 260.041C242.632 260.041 243.124 260.142 243.581 260.338C244.038 260.535 244.45 260.823 244.792 261.185C245.134 261.547 245.399 261.975 245.569 262.443C245.74 262.911 245.814 263.409 245.785 263.907C245.871 263.992 245.81 264.15 245.81 264.224ZM239.446 263.455H244.836C244.79 262.77 244.486 262.129 243.986 261.66C243.486 261.191 242.826 260.93 242.141 260.93C241.456 260.93 240.796 261.191 240.296 261.66C239.795 262.129 239.492 262.77 239.446 263.455Z" fill="black"/>
<path d="M251.797 260.041V261.041H251.554C251.19 261.017 250.825 261.075 250.487 261.21C250.148 261.346 249.845 261.556 249.598 261.826C249.352 262.095 249.169 262.416 249.063 262.766C248.957 263.115 248.931 263.484 248.986 263.845V267.735H247.964V260.114H248.95V261.602C249.212 261.084 249.624 260.658 250.132 260.38C250.64 260.101 251.221 259.983 251.797 260.041Z" fill="black"/>
<path d="M212.954 326.664H124.742C119.901 326.664 115.259 324.737 111.836 321.307C108.412 317.877 106.489 313.225 106.489 308.375C106.489 303.524 108.412 298.872 111.836 295.442C115.259 292.012 119.901 290.085 124.742 290.085H212.954C215.356 290.077 217.737 290.544 219.958 291.46C222.18 292.375 224.199 293.721 225.901 295.42C227.602 297.119 228.952 299.138 229.873 301.361C230.794 303.584 231.268 305.968 231.268 308.375C231.268 310.782 230.794 313.165 229.873 315.388C228.952 317.611 227.602 319.63 225.901 321.329C224.199 323.028 222.18 324.374 219.958 325.29C217.737 326.205 215.356 326.672 212.954 326.664Z" fill="#F67F20"/>
<path d="M153.753 304.156H156.88C157.38 304.105 157.884 304.16 158.361 304.317C158.838 304.473 159.277 304.729 159.649 305.066C160.021 305.403 160.319 305.815 160.523 306.275C160.726 306.734 160.832 307.231 160.832 307.734C160.832 308.237 160.726 308.735 160.523 309.194C160.319 309.654 160.021 310.066 159.649 310.403C159.277 310.74 158.838 310.995 158.361 311.152C157.884 311.309 157.38 311.364 156.88 311.313H153.753V304.156ZM156.819 310.191C157.465 310.191 158.084 309.934 158.54 309.477C158.997 309.02 159.253 308.399 159.253 307.753C159.253 307.106 158.997 306.486 158.54 306.028C158.084 305.571 157.465 305.314 156.819 305.314H155.079V310.191H156.819Z" fill="white"/>
<path d="M161.663 307.728C161.621 306.956 161.812 306.19 162.21 305.527C162.608 304.865 163.195 304.338 163.895 304.013C164.595 303.688 165.377 303.582 166.138 303.707C166.899 303.831 167.606 304.182 168.166 304.714C168.727 305.245 169.115 305.933 169.281 306.687C169.448 307.442 169.385 308.23 169.1 308.948C168.815 309.667 168.321 310.283 167.683 310.718C167.045 311.152 166.292 311.385 165.52 311.386C165.024 311.414 164.527 311.341 164.06 311.17C163.593 310.998 163.165 310.733 162.804 310.391C162.443 310.048 162.155 309.636 161.959 309.178C161.763 308.72 161.662 308.227 161.663 307.728ZM168.027 307.728C168.027 307.229 167.879 306.74 167.602 306.325C167.324 305.909 166.93 305.586 166.469 305.395C166.008 305.205 165.501 305.155 165.012 305.254C164.523 305.352 164.074 305.594 163.723 305.948C163.371 306.302 163.132 306.753 163.036 307.243C162.94 307.734 162.992 308.242 163.184 308.703C163.377 309.164 163.702 309.557 164.118 309.833C164.533 310.109 165.022 310.255 165.52 310.252C165.853 310.262 166.185 310.204 166.494 310.081C166.804 309.957 167.085 309.772 167.32 309.535C167.555 309.298 167.739 309.016 167.861 308.705C167.982 308.394 168.039 308.062 168.027 307.728Z" fill="white"/>
<path d="M177.117 304.156V311.313H176.034L172.091 306.436V311.313H170.765V304.156H171.86L175.803 309.033V304.156H177.117Z" fill="white"/>
<path d="M184.394 310.204V311.313H179.04V304.156H184.248V305.265H180.366V307.131H183.81V308.228H180.366V310.204H184.394Z" fill="white"/>
<path d="M171.313 214.781C166.648 214.781 162.089 213.395 158.211 210.798C154.332 208.202 151.31 204.511 149.525 200.193C147.74 195.876 147.273 191.124 148.183 186.541C149.093 181.957 151.339 177.746 154.637 174.442C157.935 171.137 162.137 168.886 166.712 167.975C171.287 167.063 176.028 167.531 180.338 169.319C184.647 171.108 188.33 174.136 190.921 178.022C193.513 181.908 194.896 186.477 194.896 191.151C194.886 197.415 192.398 203.42 187.978 207.849C183.557 212.278 177.564 214.771 171.313 214.781ZM171.313 169.959C167.13 169.959 163.041 171.202 159.563 173.531C156.085 175.859 153.374 179.169 151.773 183.041C150.172 186.913 149.754 191.174 150.57 195.285C151.386 199.396 153.4 203.172 156.358 206.135C159.316 209.099 163.084 211.117 167.187 211.935C171.289 212.753 175.542 212.333 179.406 210.729C183.271 209.125 186.574 206.409 188.898 202.924C191.222 199.439 192.462 195.342 192.462 191.151C192.456 185.532 190.225 180.146 186.26 176.173C182.296 172.2 176.92 169.966 171.313 169.959Z" fill="#F67F20"/>
<path d="M169.596 198.43C169.301 198.429 169.015 198.321 168.793 198.125C166.737 196.308 163.208 193.15 162.709 192.48C162.527 192.211 162.458 191.881 162.519 191.562C162.579 191.243 162.763 190.961 163.031 190.779C163.299 190.596 163.629 190.527 163.947 190.588C164.265 190.649 164.547 190.833 164.729 191.102C165.057 191.516 167.284 193.54 169.536 195.552L181.473 184.201C181.707 183.977 182.02 183.857 182.343 183.865C182.666 183.873 182.972 184.009 183.195 184.243C183.418 184.478 183.538 184.791 183.53 185.115C183.522 185.438 183.386 185.745 183.152 185.969L170.4 198.162C170.173 198.344 169.888 198.44 169.596 198.43Z" fill="#F67F20"/>
<path d="M317.217 148.317C317.217 148.487 250.958 148.634 169.232 148.634C87.5062 148.634 21.2227 148.499 21.2227 148.317C21.2227 148.134 87.4819 148 169.232 148C250.982 148 317.217 148.158 317.217 148.317Z" fill="#263238"/>
<path d="M30.9819 138.367C31.9362 138.367 32.7099 137.592 32.7099 136.636C32.7099 135.679 31.9362 134.904 30.9819 134.904C30.0275 134.904 29.2539 135.679 29.2539 136.636C29.2539 137.592 30.0275 138.367 30.9819 138.367Z" fill="#263238"/>
<path d="M37.4067 138.367C38.361 138.367 39.1347 137.592 39.1347 136.636C39.1347 135.679 38.361 134.904 37.4067 134.904C36.4524 134.904 35.6787 135.679 35.6787 136.636C35.6787 137.592 36.4524 138.367 37.4067 138.367Z" fill="#263238"/>
<path d="M45.4628 136.636C45.4628 136.978 45.3614 137.313 45.1716 137.598C44.9817 137.882 44.7118 138.104 44.3961 138.235C44.0803 138.366 43.7329 138.401 43.3977 138.334C43.0625 138.267 42.7546 138.102 42.513 137.86C42.2713 137.618 42.1067 137.309 42.04 136.973C41.9734 136.638 42.0076 136.289 42.1384 135.973C42.2692 135.657 42.4906 135.386 42.7748 135.196C43.059 135.006 43.393 134.904 43.7348 134.904C44.1921 134.907 44.6298 135.091 44.9532 135.415C45.2765 135.739 45.4596 136.177 45.4628 136.636Z" fill="#263238"/>
<path d="M512.307 281.964C512.307 281.964 527.08 272.966 530.402 275.612C535.209 279.428 536.803 285.866 536.803 285.866C536.803 285.866 544.603 256.054 552.051 257.188C556.322 257.834 554.229 261.175 552.318 265.357C550.542 269.247 547.512 283.501 547.512 283.501C547.512 283.501 561.615 266.723 565.765 267.028C568.977 267.26 569.416 270.088 564.828 274.624C560.24 279.16 552.525 293.414 552.525 293.414C552.525 293.414 562.418 284.183 566.495 284.122C569.756 284.122 571.861 286.354 567.712 290.024C563.562 293.694 557.052 296.474 553.681 303.168C549.483 311.35 540.539 331.736 540.539 331.736L509.241 320.628C509.241 320.628 504.142 299.827 503.947 294.767C503.947 294.767 504.373 284.086 504.312 282.184C504.251 280.282 509.289 279.745 510.81 283.403C512.332 287.061 511.65 290.89 512.271 293.316C512.891 295.742 513.987 297.998 515.763 299.083C517.54 300.169 522.042 300.303 523.198 298.9C524.688 296.584 525.659 293.972 526.046 291.243C526.202 289.18 526.173 287.107 525.961 285.049C525.961 285.049 512.928 290.317 512.307 281.964Z" fill="#FFBE9D"/>
<path d="M160.629 379.045L138.871 370.888C138.871 370.888 116.724 357.89 112.623 362.512C112.044 362.221 111.41 362.057 110.764 362.032C110.117 362.007 109.473 362.12 108.873 362.365C108.274 362.61 107.734 362.98 107.289 363.451C106.844 363.922 106.505 364.483 106.295 365.096C105.175 367.816 108.899 371.754 108.899 371.754C108.899 371.754 107.682 372.973 109.568 376.912C111.454 380.85 132.36 393.397 132.36 393.397C132.36 393.397 159.692 408.333 170.741 415.478L189.834 389.544L187.193 388.544C187.193 388.544 185.611 375.595 180.33 372.144C174.562 368.389 167.626 358.22 166.092 354.232C164.559 350.245 157.221 352.099 158.45 360.329C159.68 368.559 166.092 370.742 165.484 376.253C164.876 381.764 160.629 379.045 160.629 379.045Z" fill="#FFBE9D"/>
<path d="M127.226 382.069C123.972 380.614 120.811 378.961 117.758 377.119C114.604 375.465 111.549 373.629 108.607 371.62C111.848 373.078 114.997 374.731 118.038 376.57C121.204 378.225 124.271 380.061 127.226 382.069Z" fill="#EB996E"/>
<path d="M137.836 375.948C136.498 375.523 135.193 375.001 133.93 374.387C131.496 373.351 128.284 371.864 124.767 370.059C121.25 368.254 118.123 366.401 115.944 365.011C114.861 364.292 113.997 363.694 113.426 363.243C113.106 363.039 112.816 362.793 112.562 362.511C113.818 363.148 115.037 363.856 116.212 364.633C118.439 365.95 121.554 367.694 125.071 369.51C128.588 371.327 131.813 372.863 134.149 374.01C135.427 374.557 136.66 375.205 137.836 375.948Z" fill="#EB996E"/>
<path d="M142.375 387.958C141.71 387.656 141.067 387.306 140.453 386.91L135.318 383.837V383.764C134.231 381.337 133.012 378.972 131.667 376.68C130.916 375.34 129.987 374.11 128.905 373.022C128.328 372.499 127.593 372.183 126.817 372.126C126.041 372.068 125.268 372.272 124.621 372.705C124.35 372.857 124.117 373.07 123.94 373.327C123.945 373.375 123.945 373.424 123.94 373.473L124.025 373.741C124.086 373.924 124.147 374.107 124.22 374.29C124.475 375.009 124.767 375.729 125.047 376.436L126.714 380.508C127.797 383.081 128.783 385.459 129.659 387.532V387.471L134.04 392.604L135.257 394.031C135.512 394.36 135.646 394.543 135.622 394.567C135.445 394.442 135.286 394.294 135.147 394.128L133.93 392.787L129.404 387.788C128.503 385.751 127.469 383.386 126.361 380.789C125.814 379.484 125.254 378.131 124.658 376.729C124.378 376.021 124.086 375.302 123.818 374.558C123.745 374.375 123.684 374.192 123.623 373.997L123.526 373.705C123.506 373.559 123.506 373.411 123.526 373.266C123.606 373.012 123.758 372.788 123.964 372.62C124.127 372.475 124.302 372.345 124.487 372.229C125.262 371.723 126.181 371.483 127.104 371.547C128.009 371.625 128.863 371.997 129.537 372.607C130.668 373.747 131.635 375.04 132.409 376.448C133.771 378.77 134.99 381.172 136.06 383.642L135.963 383.545L140.988 386.788C141.477 387.146 141.94 387.537 142.375 387.958Z" fill="#EB996E"/>
<path d="M164.279 388.166C163.371 388.039 162.477 387.818 161.614 387.507C159.523 386.867 157.361 386.486 155.177 386.373C153.012 386.294 150.869 386.817 148.983 387.885C148.234 388.397 147.515 388.95 146.829 389.543C147.26 388.697 147.923 387.99 148.74 387.507C150.653 386.259 152.908 385.641 155.189 385.739C157.432 385.837 159.646 386.29 161.748 387.08C162.636 387.327 163.488 387.692 164.279 388.166Z" fill="#EB996E"/>
<path d="M162.588 382.423C162.734 382.52 162.186 383.471 161.663 384.678C161.14 385.886 160.799 386.922 160.629 386.898C160.458 386.873 160.519 385.678 161.079 384.459C161.639 383.24 162.454 382.301 162.588 382.423Z" fill="#EB996E"/>
<path d="M287.964 278.782C289.461 268.515 301.349 253.786 311.961 253.774C308.999 249.333 307.4 244.12 307.361 238.779C307.322 233.438 308.845 228.202 311.742 223.718C315.818 217.622 322.389 213.11 325.127 206.331C328.279 198.674 325.857 190.004 326.162 181.75C326.6 169.654 332.879 158.583 339 148.097C344.597 138.477 351.424 127.93 362.449 125.564C369.422 124.077 376.662 126.284 383.209 129.076C414.532 142.488 438.894 170.617 447.266 203.161C449.262 210.94 450.6 219.365 456.015 225.389C461.759 231.766 471.835 235.228 473.526 243.556C474.743 249.543 470.934 255.554 471.506 261.626C471.981 266.711 481.497 281.55 483.675 286.183C487.459 294.17 486.109 302.79 482.239 310.752C478.369 318.714 468.61 326.445 459.921 328.615L362.802 296.194C353.675 301.4 344.549 321.567 334.084 322.799C323.618 324.03 310.792 328.615 300.705 317.544C290.191 305.948 286.455 289.061 287.964 278.782Z" fill="#263238"/>
<path d="M449.029 182.006C447.946 190.151 450.173 203.612 454.615 210.562C457.596 215.232 462.573 218.28 467.477 220.95C472.381 223.621 477.529 226.181 481.24 230.302C484.952 234.424 486.96 240.618 484.477 245.556C493.227 248.824 497.145 259.992 493.932 268.625C490.72 277.258 481.922 283.074 472.734 284.793L432.626 272.685L423.84 221.475L446.961 181.969" fill="#263238"/>
<path d="M453.897 234.216C454.167 234.307 454.427 234.421 454.676 234.558C455.426 234.896 456.157 235.275 456.867 235.692C459.501 237.264 461.871 239.243 463.888 241.557C466.959 245.031 469.232 249.14 470.544 253.591C472.254 259.147 472.292 265.084 470.654 270.661L470.508 270.296C472.898 271.637 475.09 273.308 477.018 275.258C481.852 280.059 484.93 286.352 485.755 293.121C486.357 298.665 485.365 304.266 482.896 309.264C481.264 312.604 479.033 315.613 476.312 318.141C475.576 318.817 474.8 319.448 473.988 320.031C473.715 320.253 473.422 320.449 473.112 320.616C473.356 320.367 473.621 320.139 473.903 319.933C474.682 319.313 475.43 318.654 476.142 317.958C478.765 315.395 480.911 312.385 482.482 309.069C484.839 304.163 485.775 298.692 485.184 293.279C484.333 286.656 481.306 280.504 476.58 275.795C474.692 273.879 472.546 272.238 470.204 270.917L469.985 270.795L470.058 270.552C471.692 265.087 471.692 259.263 470.058 253.798C469.37 251.452 468.423 249.191 467.234 247.056C466.189 245.217 464.966 243.485 463.584 241.886C461.622 239.572 459.325 237.566 456.769 235.936C455.881 235.338 455.114 235.009 454.64 234.716C454.375 234.576 454.127 234.409 453.897 234.216Z" fill="#455A64"/>
<path d="M335.409 287.317C335.409 287.317 317.521 292.767 311.242 301.949C306.8 308.411 261.35 407.016 261.35 407.016L192.389 386.081L167.723 418.722L244.471 461.397C251.469 465.284 259.345 467.306 267.345 467.27C275.346 467.234 283.203 465.14 290.165 461.19C298.015 456.738 304.414 450.107 308.589 442.096L328.059 404.639L335.409 287.317Z" fill="#F67F20"/>
<path d="M317.095 502L327.865 455.484L319.711 421.709C314.455 404.322 309.976 375.997 315.659 353.172L334.74 287.561L355.719 277.904L403.713 269.625C405.55 270.247 453.897 283.927 453.897 283.927C457.079 284.593 460.213 285.469 463.279 286.549L468.816 322.47L452.157 381.667L444.856 440.657L460.797 502H317.095Z" fill="#F67F20"/>
<path d="M344.84 282.915L358.749 276.673L421.48 277.538L436.326 286.171C436.326 286.171 384.499 343.478 371.49 345.38C338.78 350.148 344.84 282.915 344.84 282.915Z" fill="#FFBE9D"/>
<path d="M461.917 286.098C461.917 286.098 471.311 288.219 479.367 305.436C487.422 322.652 500.443 370.571 500.443 370.571L506.004 319.787L551.357 324.786L542.584 446.144C542.584 446.144 526.533 469.469 499.689 467.323C472.844 465.177 438.747 380.13 438.747 380.13L461.917 286.098Z" fill="#F67F20"/>
<path d="M493.361 432.524C493.347 432.427 493.347 432.328 493.361 432.231C493.361 432 493.361 431.719 493.361 431.378C493.361 430.561 493.482 429.463 493.568 428.073C493.738 425.208 494.079 421.062 494.553 415.941C495.49 405.711 497.23 391.616 499.348 376.095C501.465 360.573 503.266 346.49 504.325 336.284C504.848 331.175 505.262 327.042 505.542 324.177C505.676 322.787 505.785 321.738 505.858 320.884C505.858 320.543 505.931 320.263 505.968 320.031C505.955 319.934 505.955 319.835 505.968 319.738C505.98 319.835 505.98 319.934 505.968 320.031V320.897C505.968 321.701 505.846 322.811 505.773 324.201C505.59 327.066 505.25 331.212 504.775 336.321C503.838 346.551 502.11 360.646 499.981 376.18C497.851 391.714 496.062 405.772 495.004 415.99C494.48 421.099 494.067 425.232 493.787 428.086C493.653 429.476 493.543 430.524 493.47 431.378C493.47 431.731 493.397 432.012 493.373 432.231C493.379 432.329 493.375 432.427 493.361 432.524Z" fill="#003048"/>
<path d="M262.153 433.109C261.937 432.833 261.764 432.524 261.642 432.195C261.242 431.342 260.893 430.467 260.596 429.573C258.551 423.673 257.942 417.369 258.819 411.186C258.942 410.255 259.117 409.33 259.343 408.418C259.394 408.073 259.506 407.738 259.671 407.431C259.768 407.431 259.489 408.894 259.257 411.235C258.631 417.36 259.23 423.549 261.022 429.439C261.703 431.695 262.251 433.06 262.153 433.109Z" fill="#003048"/>
<path d="M269.783 434.231C269.475 433.968 269.205 433.665 268.98 433.329C268.493 432.719 267.836 431.805 267.081 430.634C263.176 424.485 260.756 417.509 260.011 410.259C259.893 409.166 259.832 408.067 259.829 406.967C259.778 406.562 259.778 406.153 259.829 405.748C259.938 405.748 260.011 407.455 260.388 410.186C261.368 417.321 263.755 424.189 267.41 430.39C268.858 432.768 269.868 434.17 269.783 434.231Z" fill="#003048"/>
<path d="M323.472 325.798C323.425 326.134 323.348 326.465 323.241 326.786L322.462 329.578C321.768 332.017 320.782 335.528 319.578 339.808C316.288 351.02 313.875 362.471 312.362 374.058C310.791 385.661 311.792 397.467 315.294 408.638C316.511 412.93 317.728 416.356 318.629 418.721C319.018 419.855 319.347 420.77 319.578 421.441C319.701 421.758 319.803 422.084 319.882 422.416C319.714 422.12 319.572 421.81 319.456 421.489C319.201 420.819 318.835 419.929 318.397 418.807C317.485 416.466 316.207 413.052 314.868 408.76C313.257 403.735 312.137 398.565 311.522 393.323C310.844 386.891 310.918 380.401 311.741 373.985C313.246 362.385 315.721 350.932 319.14 339.747C320.357 335.431 321.476 331.956 322.231 329.566L323.119 326.81C323.205 326.463 323.324 326.124 323.472 325.798Z" fill="#003048"/>
<path d="M450.247 405.76C450.247 405.76 450.186 405.663 450.089 405.468L449.663 404.565C449.274 403.724 448.75 402.554 448.081 401.066C447.412 399.578 446.548 397.701 445.647 395.518C444.747 393.336 443.773 390.812 442.666 388.056C441.558 385.3 440.573 382.179 439.392 378.887L437.786 373.693C437.518 372.802 437.239 371.9 436.959 370.986C436.679 370.071 436.472 369.108 436.216 368.157C433.942 359.908 432.527 351.446 431.994 342.905C431.36 334.339 432.245 325.727 434.61 317.47C436.487 310.67 439.93 304.406 444.662 299.181C447.839 295.673 451.688 292.841 455.979 290.853C457.142 290.324 458.342 289.88 459.568 289.524L460.53 289.256L460.858 289.183C460.858 289.183 460.761 289.244 460.554 289.317L459.605 289.646C458.401 290.054 457.222 290.535 456.076 291.085C451.867 293.13 448.1 295.985 444.99 299.486C440.368 304.678 437.007 310.871 435.17 317.58C432.854 325.779 431.993 334.322 432.627 342.82C433.183 351.339 434.602 359.779 436.861 368.011C437.117 368.962 437.348 369.901 437.591 370.827L438.407 373.534C438.942 375.314 439.465 377.046 439.977 378.716C441.193 382.02 442.13 385.117 443.177 387.897L446.061 395.384C446.949 397.579 447.765 399.432 448.397 400.968C449.03 402.505 449.517 403.663 449.87 404.517L450.235 405.443C450.254 405.548 450.258 405.655 450.247 405.76Z" fill="#003048"/>
<path d="M433.015 350.794C427.077 378.899 427.004 407.809 437.214 434.645C437.798 436.206 440.146 441.742 441.813 441.827C443.919 441.925 444.916 439.303 445.282 437.218C446.024 432.938 446.498 425.903 447.229 421.623C448.178 416.271 449.443 403.87 449.443 403.87C449.443 403.87 444.576 392.628 442.385 386.593C438.382 375.4 434.999 364.718 433.137 351.684" fill="#E0721A"/>
<path d="M428.172 459.666C428.035 459.927 427.877 460.176 427.698 460.41L426.237 462.446C425.921 462.885 425.556 463.372 425.179 463.909C424.802 464.445 424.278 464.958 423.779 465.543C422.669 466.897 421.482 468.188 420.226 469.408L418.048 471.542C417.281 472.286 416.405 472.956 415.541 473.712C413.677 475.28 411.736 476.754 409.724 478.126C400.446 484.422 389.875 488.551 378.791 490.209C376.371 490.565 373.934 490.793 371.49 490.892C370.346 490.892 369.239 491.026 368.18 491.002L365.138 490.917C363.387 490.857 361.64 490.706 359.905 490.465C359.139 490.38 358.433 490.319 357.776 490.209L355.999 489.856L353.565 489.344C353.278 489.301 352.997 489.227 352.726 489.124C353.016 489.126 353.306 489.159 353.59 489.222L356.023 489.612L357.8 489.904C358.445 490.002 359.163 490.039 359.93 490.112C361.655 490.317 363.389 490.435 365.126 490.465H368.156C369.214 490.465 370.297 490.368 371.441 490.319C373.705 490.319 376.114 489.892 378.645 489.575C384.11 488.682 389.471 487.24 394.647 485.271C399.785 483.205 404.705 480.631 409.335 477.59C411.347 476.243 413.288 474.794 415.152 473.249C416.016 472.517 416.892 471.859 417.658 471.139L419.861 469.042C421.297 467.75 422.404 466.384 423.451 465.262C423.962 464.689 424.461 464.165 424.875 463.665C425.288 463.165 425.653 462.677 425.982 462.238L427.527 460.288C427.72 460.058 427.936 459.85 428.172 459.666Z" fill="#003048"/>
<path d="M418.267 441.071C418.275 441.519 418.222 441.967 418.109 442.4C417.899 443.604 417.614 444.793 417.257 445.961C416.11 449.841 414.413 453.537 412.219 456.934C410.033 460.329 407.369 463.388 404.309 466.018C403.392 466.818 402.429 467.563 401.425 468.25C401.07 468.529 400.682 468.762 400.269 468.945C400.208 468.847 401.766 467.725 404.017 465.689C409.914 460.276 414.326 453.437 416.831 445.827C417.792 442.925 418.157 441.047 418.267 441.071Z" fill="#003048"/>
<path d="M396.18 117.834C404.714 117.893 413.086 120.172 420.477 124.446C427.868 128.72 434.025 134.843 438.346 142.217C442.667 149.59 445.003 157.961 445.127 166.511C445.25 175.061 443.157 183.496 439.051 190.992C436.252 196.076 432.249 200.893 426.736 202.661C427.579 188.032 425.26 173.393 419.938 159.744C414.617 146.096 406.417 133.759 395.9 123.577" fill="#F67F20"/>
<path d="M416.053 122.199C413.534 116.944 416.235 110.372 420.725 106.677C425.216 102.983 431.081 101.483 436.74 100.129C442.398 98.776 448.263 97.3738 452.851 93.8013C452.194 102.934 449.931 112.322 444.029 119.321C438.127 126.32 427.905 130.21 419.484 126.637" fill="#F67F20"/>
<path d="M421.893 128.222C418.023 129.856 413.375 128.832 409.943 126.454C406.577 123.903 403.845 120.606 401.961 116.822C399.363 112.34 397.625 107.41 396.838 102.288C396.067 97.1302 396.967 91.861 399.405 87.2537C406.062 94.3622 413.399 100.337 417.208 109.311C419.447 114.59 419.179 123.04 416.782 128.247" fill="#F67F20"/>
<path d="M440.767 157.79C440.929 158.344 441.04 158.911 441.096 159.485C441.193 160.034 441.291 160.704 441.351 161.497C441.412 162.29 441.522 163.18 441.546 164.167C441.653 166.5 441.612 168.838 441.424 171.166C441.174 174.015 440.723 176.843 440.074 179.628C439.404 182.407 438.534 185.133 437.47 187.785C436.599 189.951 435.587 192.057 434.44 194.089C433.977 194.967 433.478 195.723 433.064 196.393C432.651 197.064 432.261 197.613 431.933 198.076C431.625 198.565 431.271 199.022 430.874 199.442C431.108 198.915 431.393 198.412 431.726 197.942C432.018 197.466 432.383 196.893 432.76 196.211C433.137 195.528 433.612 194.76 434.05 193.869C435.12 191.824 436.083 189.724 436.934 187.578C438.999 182.301 440.314 176.76 440.84 171.117C441.054 168.811 441.139 166.495 441.096 164.179C441.096 163.192 441.023 162.302 440.998 161.521C440.974 160.741 440.901 160.058 440.852 159.509C440.765 158.941 440.736 158.365 440.767 157.79Z" fill="#263238"/>
<path d="M436.971 125.15C436.549 125.542 436.097 125.901 435.62 126.223C434.257 127.025 432.773 127.601 431.227 127.93C426.047 128.831 420.73 128.527 415.687 127.04H415.505V126.857C415.42 126.491 415.334 126.101 415.249 125.711C414.608 122.731 414.472 119.664 414.848 116.639C415.123 114.145 416 111.756 417.403 109.677C418.384 108.299 419.624 107.127 421.054 106.226C421.579 105.911 422.128 105.637 422.696 105.409C422.228 105.793 421.727 106.136 421.2 106.433C419.872 107.388 418.726 108.573 417.817 109.933C416.5 111.941 415.667 114.229 415.383 116.615C415.056 119.574 415.208 122.568 415.833 125.479C415.918 125.869 416.004 126.247 416.077 126.613L415.858 126.381C420.812 127.838 426.022 128.2 431.129 127.442C432.649 127.163 434.12 126.666 435.498 125.967C435.96 125.645 436.453 125.371 436.971 125.15Z" fill="#263238"/>
<path d="M441.947 109.299C441.947 109.408 440.171 109.664 437.384 110.518C435.753 111.003 434.156 111.593 432.602 112.286C430.707 113.152 428.877 114.155 427.126 115.285C425.418 116.427 423.792 117.686 422.258 119.053C421.008 120.199 419.83 121.421 418.729 122.711C416.855 124.942 415.918 126.491 415.809 126.369C415.96 125.968 416.161 125.587 416.405 125.235C417 124.232 417.663 123.271 418.388 122.357C419.449 120.994 420.612 119.714 421.869 118.529C423.418 117.083 425.083 115.765 426.846 114.59C428.612 113.499 430.459 112.546 432.37 111.737C433.95 111.061 435.576 110.503 437.238 110.067C438.362 109.769 439.504 109.545 440.657 109.396C441.08 109.302 441.515 109.269 441.947 109.299Z" fill="#263238"/>
<path d="M421.638 128.076C421.638 128.076 421.638 128.198 421.638 128.442C421.567 128.787 421.457 129.122 421.309 129.442C420.766 130.646 419.929 131.694 418.876 132.49C417.319 133.715 415.378 134.346 413.4 134.27C412.197 134.155 411.034 133.776 409.993 133.161C408.953 132.546 408.059 131.709 407.377 130.71C406.694 129.711 406.239 128.574 406.043 127.379C405.848 126.185 405.916 124.962 406.244 123.796C406.897 121.92 408.19 120.335 409.895 119.321C411.001 118.648 412.254 118.254 413.546 118.175C413.898 118.144 414.252 118.144 414.604 118.175C414.726 118.184 414.845 118.213 414.957 118.261C414.497 118.318 414.034 118.35 413.57 118.358C412.323 118.539 411.133 119.002 410.09 119.712C408.531 120.709 407.366 122.217 406.792 123.979C406.497 125.062 406.439 126.195 406.624 127.302C406.809 128.409 407.231 129.463 407.861 130.39C408.492 131.317 409.316 132.097 410.276 132.674C411.237 133.251 412.311 133.613 413.424 133.734C415.273 133.819 417.097 133.273 418.596 132.185C419.605 131.448 420.437 130.494 421.03 129.393C421.456 128.552 421.577 128.052 421.638 128.076Z" fill="#263238"/>
<path d="M406.889 128.381C406.829 128.381 406.464 127.71 407.036 126.759C407.38 126.234 407.89 125.84 408.484 125.637C409.185 125.405 409.928 125.326 410.662 125.406C412.489 125.44 414.272 125.971 415.821 126.942C415.748 127.125 413.509 126.235 410.613 126.04C410.041 125.921 409.448 125.948 408.889 126.119C408.33 126.289 407.822 126.597 407.413 127.015C407.133 127.422 406.953 127.891 406.889 128.381Z" fill="#263238"/>
<path d="M399.405 87.2537C398.475 88.8664 397.845 90.6344 397.543 92.4723C397.275 94.4926 397.181 96.5323 397.263 98.5688C397.242 101.047 397.458 103.521 397.908 105.958C398.87 110.355 400.632 114.538 403.105 118.297C404.09 119.712 404.966 120.821 405.538 121.565C405.878 121.93 406.199 122.313 406.5 122.711C405.04 121.523 403.786 120.101 402.788 118.504C400.153 114.756 398.299 110.513 397.336 106.031C396.875 103.555 396.671 101.038 396.728 98.52C396.681 96.479 396.824 94.4381 397.154 92.4235C397.393 91.0461 397.862 89.7188 398.541 88.4974C398.754 88.035 399.046 87.6139 399.405 87.2537Z" fill="#263238"/>
<path d="M405.709 101.715C406.37 102.331 406.946 103.032 407.424 103.8C408.667 105.585 409.746 107.478 410.649 109.457C411.556 111.416 412.274 113.457 412.791 115.554C413.067 116.417 413.206 117.318 413.205 118.224C413.01 118.224 412.182 114.237 410.077 109.689C407.972 105.141 405.538 101.837 405.709 101.715Z" fill="#263238"/>
<path d="M403.652 109.299C403.786 109.201 405.831 111.274 408.52 113.688C410.211 115.074 411.778 116.603 413.205 118.261C411.362 117.079 409.645 115.71 408.082 114.176C406.368 112.784 404.874 111.14 403.652 109.299Z" fill="#263238"/>
<path d="M435.498 137.928L435.328 138.099L434.792 138.55C434.128 139.105 433.433 139.622 432.711 140.098C430.339 141.692 427.759 142.951 425.045 143.842C422.335 144.74 419.513 145.257 416.661 145.378C415.802 145.429 414.94 145.429 414.081 145.378H413.375H413.132H414.081C414.689 145.378 415.566 145.378 416.649 145.305C419.478 145.128 422.275 144.595 424.972 143.72C427.66 142.821 430.227 141.593 432.614 140.062C433.527 139.464 434.245 138.952 434.732 138.586C434.926 138.44 435.109 138.294 435.291 138.172C435.474 138.05 435.498 137.916 435.498 137.928Z" fill="#FAFAFA"/>
<path d="M442.666 152.681C442.666 152.681 442.666 152.681 442.496 152.852L441.948 153.303C441.486 153.693 440.731 154.23 439.867 154.84C437.491 156.428 434.934 157.726 432.249 158.705C429.558 159.672 426.759 160.306 423.914 160.595C422.831 160.704 421.942 160.753 421.334 160.753H420.628H420.385C420.465 160.738 420.548 160.738 420.628 160.753H421.334C421.942 160.753 422.819 160.643 423.902 160.522C426.72 160.177 429.491 159.519 432.164 158.558C434.829 157.586 437.38 156.322 439.77 154.791C440.682 154.193 441.4 153.693 441.887 153.315L442.459 152.913C442.593 152.718 442.666 152.669 442.666 152.681Z" fill="#FAFAFA"/>
<path d="M440.682 174.202C440.516 174.339 440.341 174.466 440.159 174.58C439.677 174.908 439.177 175.21 438.662 175.482C435.266 177.328 431.475 178.324 427.613 178.384C426.87 178.384 426.274 178.384 425.86 178.384C425.647 178.382 425.434 178.354 425.228 178.299C425.442 178.281 425.658 178.281 425.872 178.299C426.274 178.299 426.87 178.299 427.6 178.299C429.507 178.216 431.4 177.929 433.247 177.446C435.091 176.966 436.878 176.288 438.577 175.421C439.234 175.092 439.794 174.8 440.11 174.592C440.288 174.444 440.479 174.314 440.682 174.202Z" fill="#FAFAFA"/>
<path d="M444.807 170.91C444.285 171.142 443.731 171.294 443.164 171.361C442.611 171.501 442.043 171.567 441.473 171.556C441.995 171.324 442.548 171.172 443.115 171.105C443.667 170.958 444.237 170.892 444.807 170.91Z" fill="#FAFAFA"/>
<path d="M432.736 196.223C431.821 196.421 430.879 196.466 429.949 196.357C429.016 196.334 428.094 196.148 427.224 195.808C427.224 195.735 428.441 195.991 429.974 196.101C431.507 196.211 432.724 196.138 432.736 196.223Z" fill="#FAFAFA"/>
<path d="M409.639 132.466C409.149 132.886 408.605 133.239 408.021 133.514C407.474 133.861 406.885 134.136 406.269 134.331C406.762 133.915 407.306 133.563 407.887 133.283C408.434 132.936 409.023 132.661 409.639 132.466Z" fill="#FAFAFA"/>
<path d="M403.591 119.663C402.317 120.189 401.095 120.834 399.941 121.589C398.864 122.418 397.862 123.34 396.947 124.345C397.127 123.982 397.361 123.649 397.641 123.357C398.28 122.618 399.003 121.955 399.795 121.382C400.596 120.816 401.462 120.35 402.375 119.992C402.758 119.812 403.17 119.701 403.591 119.663Z" fill="#FAFAFA"/>
<path d="M414.555 133.831C414.71 132.618 414.73 131.391 414.616 130.173C414.42 128.952 414.085 127.758 413.618 126.613C413.85 126.903 414.034 127.228 414.166 127.576C414.522 128.391 414.76 129.254 414.872 130.137C414.997 131.022 414.997 131.921 414.872 132.807C414.82 133.163 414.713 133.508 414.555 133.831Z" fill="#FAFAFA"/>
<path d="M452.206 94.0696C451.795 94.5694 451.352 95.0419 450.879 95.484C449.583 96.7019 448.173 97.7921 446.669 98.7395C444.43 100.13 442.091 101.352 439.672 102.397C436.958 103.617 433.916 104.836 430.85 106.263C427.932 107.601 425.213 109.336 422.77 111.42C420.811 113.158 419.204 115.257 418.036 117.602C417.261 119.191 416.77 120.903 416.588 122.662C416.478 123.882 416.588 124.613 416.588 124.613C416.588 124.613 416.588 124.442 416.588 124.113C416.55 123.63 416.55 123.145 416.588 122.662C416.726 120.879 417.196 119.138 417.975 117.529C419.129 115.143 420.741 113.009 422.721 111.25C425.143 109.126 427.856 107.361 430.777 106.007C433.855 104.519 436.861 103.336 439.611 102.141C442.02 101.121 444.355 99.9315 446.596 98.581C448.099 97.6566 449.516 96.5998 450.831 95.423C451.293 94.9963 451.646 94.6548 451.865 94.411C452.084 94.1671 452.206 94.0696 452.206 94.0696Z" fill="#FAFAFA"/>
<path d="M448.92 108.543C448.87 108.636 448.813 108.726 448.75 108.811L448.251 109.579C447.813 110.25 447.132 111.176 446.231 112.286C441.55 118.098 435.585 122.74 428.805 125.845C427.503 126.43 426.432 126.869 425.69 127.125L424.826 127.43C424.724 127.47 424.618 127.499 424.51 127.515L424.802 127.381L425.654 127.04C426.396 126.747 427.442 126.296 428.732 125.686C435.434 122.504 441.36 117.893 446.097 112.176C446.998 111.079 447.704 110.164 448.166 109.518L448.714 108.787C448.835 108.616 448.908 108.53 448.92 108.543Z" fill="#FAFAFA"/>
<path d="M398.128 91.3994C399.401 91.943 400.623 92.6 401.779 93.3625C404.614 95.1947 407.133 97.4761 409.238 100.117C411.337 102.77 412.981 105.753 414.106 108.945C414.582 110.255 414.937 111.606 415.164 112.981C415.128 112.895 415.099 112.805 415.079 112.713C415.006 112.457 414.933 112.201 414.86 111.908C414.606 110.924 414.297 109.955 413.935 109.006C411.601 102.669 407.313 97.2406 401.694 93.5088C400.87 92.9442 400.017 92.4232 399.138 91.9481L398.408 91.5579C398.201 91.4604 398.116 91.4116 398.128 91.3994Z" fill="#FAFAFA"/>
<path d="M337.076 137.257C337.551 143.72 333.292 149.45 328.996 154.328C324.701 159.205 319.93 164.228 319.006 170.642C317.363 182.006 328.461 192.589 326.173 203.807C324.956 209.842 320.016 214.683 319.139 220.78C318.288 226.669 321.439 232.436 325.345 236.923C329.252 241.41 333.779 240.752 337.234 245.592C341.24 251.065 346.347 255.634 352.226 259.005C364.663 265.833 379.606 255.957 385.606 254.128" fill="#263238"/>
<path d="M431.215 163.741C436.959 161.241 437.409 140.574 423.013 138.257C417.233 137.306 412.426 134.477 407.571 131.209C403.275 128.308 401.998 120.955 398.359 117.261C393.87 112.702 388.251 109.422 382.079 107.757C375.907 106.093 369.405 106.104 363.238 107.789C357.072 109.475 351.464 112.774 346.991 117.348C342.518 121.923 339.339 127.607 337.783 133.819C335.69 142.159 337.126 152.035 343.685 157.583C351.302 164.021 362.607 162.582 372.367 160.583C382.126 158.583 393.187 156.608 401.341 162.35C406.208 165.813 409.08 171.459 412.086 176.665C415.091 181.872 418.864 187.212 424.547 189.175C424.547 189.175 428.879 199.369 425.338 206.453C421.796 213.537 429.499 201.454 429.499 201.454C429.499 201.454 443.506 176.482 431.215 163.741Z" fill="#263238"/>
<path d="M358.311 308.326C358.226 294.913 358.311 257.115 358.311 257.176C358.311 257.237 336.991 253.579 332.623 225.693C330.457 211.818 331.211 189.114 332.416 170.496C333.511 153.767 344.585 133.27 361.244 135.136L413.156 148.316C415.6 148.568 417.858 149.735 419.478 151.585C421.099 153.435 421.961 155.83 421.893 158.29L418.741 287.537L358.311 308.326Z" fill="#FFBE9D"/>
<path d="M341.251 186.432C341.231 187.37 341.579 188.279 342.221 188.963C342.863 189.647 343.746 190.052 344.682 190.09C345.134 190.123 345.588 190.065 346.017 189.921C346.446 189.776 346.842 189.547 347.182 189.248C347.522 188.948 347.799 188.583 347.996 188.175C348.194 187.767 348.308 187.324 348.333 186.871C348.356 185.931 348.009 185.021 347.367 184.336C346.724 183.651 345.839 183.248 344.901 183.213C344.45 183.181 343.997 183.24 343.569 183.385C343.14 183.53 342.745 183.759 342.405 184.059C342.066 184.358 341.789 184.722 341.591 185.129C341.393 185.537 341.277 185.979 341.251 186.432Z" fill="#263238"/>
<path d="M337.308 182.335C337.758 182.798 340.459 180.799 344.305 180.823C348.15 180.848 350.949 182.774 351.375 182.298C351.582 182.091 351.131 181.25 349.902 180.36C348.245 179.195 346.268 178.577 344.244 178.592C342.247 178.584 340.3 179.211 338.683 180.384C337.502 181.238 337.076 182.128 337.308 182.335Z" fill="#263238"/>
<path d="M375.068 188.468C375.506 188.931 378.22 186.932 382.053 186.956C385.886 186.98 388.709 188.907 389.123 188.431C389.33 188.224 388.88 187.383 387.651 186.481C385.989 185.327 384.013 184.714 381.992 184.725C379.996 184.717 378.048 185.344 376.431 186.517C375.25 187.419 374.8 188.261 375.068 188.468Z" fill="#263238"/>
<path d="M361.062 211.647C361.062 211.427 358.689 211.013 354.831 210.501C353.846 210.403 352.921 210.208 352.751 209.538C352.674 208.521 352.907 207.504 353.42 206.623C354.345 204.25 355.314 201.758 356.328 199.149C360.38 188.505 363.313 179.75 362.887 179.64C362.461 179.53 358.823 187.98 354.783 198.625C353.797 201.246 352.872 203.746 351.984 206.136C351.361 207.322 351.175 208.691 351.461 210.001C351.601 210.35 351.821 210.661 352.102 210.91C352.382 211.16 352.717 211.341 353.079 211.44C353.618 211.591 354.175 211.669 354.734 211.671C358.628 211.842 361.05 211.866 361.062 211.647Z" fill="#263238"/>
<path d="M358.312 257.176C371.413 257.408 384.321 253.988 395.597 247.3C395.293 247.3 385.338 266.686 358.664 263.76L358.312 257.176Z" fill="#EB996E"/>
<path d="M362.169 222.755C361.707 220.39 364.493 219.621 366.538 218.341C368.582 217.061 369.75 215.378 371.673 216.841C372.753 217.705 373.57 218.854 374.034 220.158C374.409 221.016 374.544 221.96 374.423 222.889C374.169 223.995 373.567 224.991 372.707 225.73C371.568 226.857 370.119 227.617 368.546 227.913C367.761 228.058 366.954 228.038 366.177 227.856C365.4 227.673 364.67 227.331 364.031 226.852C363.398 226.363 362.904 225.716 362.601 224.975C362.298 224.234 362.195 223.426 362.303 222.633" fill="#EB996E"/>
<path d="M372.366 214.33C371.745 214.33 371.733 218.475 368.156 221.426C364.578 224.377 360.148 223.864 360.112 224.498C360.051 224.767 361.098 225.315 362.972 225.364C365.413 225.409 367.792 224.588 369.689 223.048C371.503 221.562 372.672 219.429 372.95 217.097C373.108 215.378 372.646 214.305 372.366 214.33Z" fill="#263238"/>
<path d="M374.495 179.872C374.873 180.921 378.706 180.433 383.208 180.982C387.711 181.53 391.361 182.774 391.958 181.847C392.225 181.396 391.592 180.409 390.12 179.409C388.178 178.133 385.957 177.347 383.646 177.116C381.341 176.832 379.002 177.099 376.82 177.897C375.165 178.555 374.325 179.372 374.495 179.872Z" fill="#263238"/>
<path d="M337.843 169.045C338.525 169.922 341.165 169.045 344.354 169.045C347.542 169.045 350.219 169.654 350.852 168.74C351.119 168.289 350.694 167.423 349.525 166.582C347.955 165.569 346.11 165.067 344.244 165.143C342.373 165.168 340.557 165.778 339.048 166.886C337.916 167.703 337.551 168.593 337.843 169.045Z" fill="#263238"/>
<path d="M424.935 241.63C417.281 243.178 416.6 239.277 410.88 233.948C408.036 231.25 405.86 227.923 404.525 224.234C403.19 220.544 402.732 216.594 403.189 212.696C404.053 205.855 407.741 198.881 405.38 192.407C402.24 183.871 390.254 181.201 387.066 172.642C385.216 167.679 386.883 161.863 384.79 156.986C382.819 152.413 378 149.767 373.327 148.073C368.654 146.378 363.592 145.207 359.686 142.147C355.78 139.086 353.309 133.307 355.841 129.015C376.637 131.508 397.063 136.478 416.685 143.817C421.224 145.524 425.994 147.561 428.683 151.609C431.519 155.888 431.385 161.363 431.117 166.545C429.965 191.59 428.801 216.63 427.624 241.666" fill="#263238"/>
<path d="M442.677 232.265C442.677 232.265 442.787 232.168 442.982 231.924C443.259 231.565 443.515 231.191 443.748 230.802C444.637 229.296 445.255 227.645 445.574 225.925C446.097 223.183 445.946 220.354 445.136 217.683C444.07 214.097 441.772 211.004 438.65 208.952C435.352 206.623 431.056 205.002 428.318 201.283C427.629 200.355 427.138 199.295 426.879 198.168C426.619 197.041 426.595 195.872 426.809 194.735C427.372 192.248 428.188 189.825 429.243 187.505C430.335 184.857 430.868 182.011 430.807 179.146C430.747 176.281 430.094 173.46 428.89 170.861C427.624 168.08 425.683 165.661 423.244 163.826C420.686 162.054 417.783 160.845 414.726 160.278C411.708 159.595 408.702 159.193 405.915 158.351C403.161 157.634 400.627 156.243 398.541 154.303C396.69 152.291 395.563 149.715 395.341 146.987C395.082 144.258 394.643 141.55 394.026 138.879C392.782 133.873 390.184 129.308 386.518 125.686C383.264 122.568 379.138 120.518 374.69 119.809C370.989 119.196 367.19 119.786 363.848 121.492C361.363 122.751 359.227 124.607 357.63 126.893C356.623 128.325 355.885 129.928 355.451 131.624C355.286 132.208 355.196 132.81 355.184 133.416C355.708 131.168 356.671 129.046 358.019 127.174C359.613 125.019 361.699 123.28 364.103 122.101C367.314 120.57 370.922 120.084 374.423 120.711C378.671 121.439 382.597 123.447 385.679 126.466C389.175 129.978 391.638 134.386 392.797 139.208C393.372 141.846 393.778 144.517 394.014 147.207C394.262 150.186 395.495 152.997 397.519 155.193C399.737 157.288 402.444 158.793 405.392 159.571C408.325 160.448 411.331 160.851 414.288 161.521C417.186 162.05 419.94 163.189 422.368 164.862C424.651 166.564 426.468 168.816 427.649 171.41C428.794 173.865 429.42 176.53 429.489 179.239C429.559 181.947 429.069 184.641 428.051 187.151C426.978 189.55 426.162 192.055 425.617 194.626C425.391 195.9 425.43 197.208 425.732 198.466C426.033 199.725 426.591 200.908 427.369 201.941C430.399 205.953 434.829 207.501 438.029 209.733C441.037 211.639 443.274 214.55 444.345 217.951C445.184 220.513 445.401 223.238 444.977 225.901C444.605 228.145 443.825 230.302 442.677 232.265Z" fill="#455A64"/>
<path d="M406.439 204.563C400.124 219.247 398.979 235.645 403.19 251.067C404.407 255.627 406.183 260.358 405.112 264.967C403.896 269.954 399.783 273.563 396.74 277.685C394.118 281.247 392.276 285.325 391.336 289.65C390.397 293.976 390.38 298.452 391.288 302.784C392.196 307.116 394.007 311.208 396.603 314.789C399.2 318.371 402.523 321.362 406.354 323.567C407.157 318.982 411.416 315.861 415.614 313.813C419.812 311.764 424.449 310.338 427.649 306.972C430.85 303.607 431.762 297.413 428.039 294.621C438.747 291.816 444.819 279.062 442.568 268.211C440.317 257.359 431.494 248.702 421.467 244.056" fill="#263238"/>
<path d="M417.89 312.837C415.967 313.898 414.118 314.837 413.874 317.007C413.594 319.568 416.04 324.055 416.917 326.457C417.782 328.834 417.944 331.411 417.382 333.878C416.821 336.345 415.56 338.597 413.751 340.363C411.942 342.129 409.663 343.333 407.187 343.832C404.711 344.331 402.144 344.102 399.795 343.173C403.227 343.429 406.135 340.076 406.439 336.65C406.743 333.224 405.076 329.907 403.032 327.127C400.988 324.347 398.517 321.896 396.789 318.921C393.26 312.825 388.016 296.389 392.056 287.158" fill="#263238"/>
<path d="M427.624 295.096C427.825 294.889 428.045 294.701 428.282 294.535C428.732 294.194 429.377 293.682 430.192 292.987C432.501 291.058 434.598 288.887 436.447 286.512C439.218 283.014 441.235 278.979 442.373 274.661C443.759 269.371 443.487 263.781 441.594 258.651C440.559 256.031 439.067 253.616 437.189 251.518C435.4 249.458 433.453 247.665 431.616 245.91C429.841 244.285 428.174 242.546 426.627 240.703C425.285 239.072 424.183 237.257 423.353 235.314C422.028 232.525 421.643 229.379 422.258 226.352C422.454 225.543 422.757 224.764 423.158 224.035C423.288 223.778 423.447 223.536 423.633 223.316C423.148 224.303 422.765 225.336 422.489 226.401C421.971 229.367 422.396 232.421 423.706 235.131C424.544 237.023 425.641 238.787 426.967 240.374C428.526 242.176 430.192 243.882 431.957 245.483C433.794 247.214 435.765 249.019 437.603 251.116C439.534 253.264 441.063 255.742 442.118 258.432C444.06 263.683 444.328 269.409 442.884 274.819C441.697 279.198 439.603 283.278 436.739 286.793C434.846 289.172 432.682 291.321 430.289 293.194C429.45 293.853 428.768 294.34 428.294 294.657C428.085 294.824 427.861 294.971 427.624 295.096Z" fill="#455A64"/>
<path d="M77.8799 440.718C80.9464 444.583 86.398 442.9 88.7466 440.279C91.0952 437.657 91.9835 434.012 92.7502 430.524C94.4903 422.599 96.2304 414.283 94.0766 406.467C93.5277 404.087 92.3315 401.905 90.6206 400.164C89.7621 399.312 88.6958 398.7 87.5278 398.39C86.3599 398.08 85.1312 398.082 83.9643 398.396C81.2506 399.31 79.693 402.127 78.6222 404.785C75.4394 412.641 74.0427 421.109 74.5334 429.573C74.7646 433.512 75.4948 437.608 77.9164 440.718" fill="#239263"/>
<path d="M77.8799 440.718C80.9464 444.583 86.398 442.9 88.7466 440.279C91.0952 437.657 91.9835 434.012 92.7502 430.524C94.4903 422.599 96.2304 414.283 94.0766 406.467C93.5277 404.087 92.3315 401.905 90.6206 400.164C89.7621 399.312 88.6958 398.7 87.5278 398.39C86.3599 398.08 85.1312 398.082 83.9643 398.396C81.2506 399.31 79.693 402.127 78.6222 404.785C75.4394 412.641 74.0427 421.109 74.5334 429.573C74.7646 433.512 75.4948 437.608 77.9164 440.718" fill="#054160"/>
<path d="M89.7568 460.519C94.3482 457.989 99.6299 457.006 104.822 457.715C107.608 457.995 110.529 458.641 112.537 460.592C114.545 462.543 115.117 466.165 113.084 468.091C111.749 469.113 110.103 469.643 108.424 469.591C104.408 469.786 99.9056 469.359 96.8634 472.029C95.1233 473.529 94.0524 475.895 91.8985 476.711C90.8219 477.037 89.6686 477.001 88.6142 476.609C87.5598 476.217 86.662 475.491 86.0575 474.541C84.8896 472.59 84.5109 470.265 84.9988 468.042C85.1586 466.505 85.6714 465.026 86.4968 463.721C87.3223 462.416 88.4381 461.32 89.7568 460.519Z" fill="#003048"/>
<path d="M70.506 447.046C73.3535 443.205 73.5968 437.852 71.9419 433.378C70.1345 428.93 67.1361 425.069 63.2777 422.221C58.8711 418.751 53.8269 416.182 48.4317 414.661C46.3362 413.966 44.1161 413.729 41.9214 413.966C40.8233 414.105 39.7759 414.511 38.8703 415.149C37.9646 415.787 37.2283 416.636 36.7253 417.624C35.3989 420.599 37.066 424.001 38.8062 426.745C41.8744 431.598 45.3208 436.201 49.1132 440.51C52.1554 443.973 55.6113 447.363 60.0043 448.729C64.3972 450.094 68.8632 449.631 70.9562 446.497" fill="#003048"/>
<path d="M81.5306 501.671C81.6473 501.064 81.6963 500.447 81.6766 499.83C81.6766 498.476 81.7739 496.794 81.847 494.782C81.9413 492.301 82.1647 489.826 82.5162 487.368C82.9775 484.368 83.6857 481.411 84.6336 478.528C85.5523 475.644 86.8757 472.906 88.5641 470.396C89.9292 468.334 91.738 466.605 93.8576 465.335C95.2914 464.507 96.8485 463.914 98.4696 463.58C99.0812 463.515 99.6846 463.389 100.271 463.202C99.6528 463.155 99.0317 463.183 98.4209 463.287C96.7162 463.517 95.0671 464.054 93.5534 464.872C91.3181 466.102 89.4011 467.839 87.9557 469.944C86.1879 472.487 84.8135 475.282 83.8791 478.236C82.9294 481.185 82.2412 484.212 81.8226 487.283C81.4988 489.77 81.3281 492.274 81.3115 494.782C81.3115 496.915 81.3115 498.647 81.3845 499.842C81.3734 500.455 81.4223 501.067 81.5306 501.671Z" fill="#CCCCCC"/>
<path d="M81.6402 497.793C81.6751 497.51 81.6751 497.223 81.6402 496.94C81.6402 496.306 81.5551 495.501 81.482 494.501C81.3482 492.38 81.1535 489.319 81.0318 485.539C80.7397 477.968 80.7397 467.506 81.2752 455.959C81.8106 444.412 82.845 434.012 83.9036 426.501C84.147 424.623 84.4026 422.928 84.6581 421.441C84.9137 419.953 85.084 418.685 85.2909 417.636C85.4978 416.588 85.6073 415.868 85.7168 415.198C85.7792 414.922 85.8118 414.64 85.8141 414.356C85.6896 414.615 85.6035 414.89 85.5586 415.173L84.9988 417.612C84.7555 418.636 84.5121 419.916 84.2444 421.392C83.9767 422.867 83.6481 424.562 83.3682 426.44C81.8942 436.218 80.9436 446.067 80.5207 455.947C79.9853 467.518 80.0705 478.004 80.5207 485.588C80.7154 489.38 80.9831 492.441 81.2143 494.55C81.336 495.538 81.4334 496.33 81.5185 496.989C81.524 497.261 81.5649 497.532 81.6402 497.793Z" fill="#CCCCCC"/>
<path d="M80.4232 477.626C80.4289 476.773 80.3678 475.921 80.2407 475.078C79.9497 472.779 79.5435 470.496 79.0238 468.237C78.2539 464.886 77.2951 461.58 76.1519 458.337C74.7822 454.351 73.1312 450.468 71.2114 446.717C67.8614 439.802 63.2845 433.555 57.704 428.281C56.7336 427.382 55.7096 426.543 54.6374 425.769C54.1629 425.416 53.7491 425.074 53.3354 424.794L52.1185 424.086C51.4129 423.616 50.6678 423.208 49.8916 422.867C52.4831 424.65 54.9585 426.597 57.3024 428.695C62.7366 434.012 67.2264 440.217 70.5786 447.046C72.4836 450.768 74.1382 454.613 75.5313 458.556C76.8577 462.214 77.8069 465.518 78.537 468.311C79.2672 471.103 79.7539 473.468 79.9729 475.078C80.0589 475.937 80.2094 476.789 80.4232 477.626Z" fill="#CCCCCC"/>
<path d="M266.084 198.649C263.844 190.687 253.501 191.455 253.501 191.455L253.793 197.003C259.768 195.967 263.528 202.978 263.528 202.978L266.084 198.649Z" fill="#F67F20"/>
<path d="M164.413 105.97C158.839 106.567 158.17 113.578 158.17 113.578L161.906 114.03C161.906 109.896 167.005 108.213 167.005 108.213L164.413 105.97Z" fill="#F67F20"/>
<path d="M216.35 31.6169C219.757 40.3105 231.269 38.2865 231.269 38.2865L230.332 32.1046C223.748 33.9336 218.796 26.4714 218.796 26.4714L216.35 31.6169Z" fill="#F67F20"/>
<path d="M86.5932 178.385C81.0077 178.97 80.3506 185.993 80.3506 185.993L84.0742 186.432C84.0742 182.311 89.1852 180.628 89.1852 180.628L86.5932 178.385Z" fill="#F67F20"/>
<path d="M109.581 59.3805C110.384 53.8205 103.764 51.4307 103.764 51.4307L102.413 54.9423C106.404 55.9665 106.757 61.3436 106.757 61.3436L109.581 59.3805Z" fill="#F67F20"/>
<path d="M14.213 144.744C13.203 153.462 24.7391 155.571 24.7391 155.571L26.7713 149.865C19.8472 149.243 18.8494 141.074 18.8494 141.074L14.213 144.744Z" fill="#F67F20"/>
<path d="M288.218 102.666C293.816 102.983 295.617 96.1668 295.617 96.1668L291.966 95.1182C291.309 99.1906 285.991 99.9954 285.991 99.9954L288.218 102.666Z" fill="#F67F20"/>
</svg>
