<svg width="622" height="539" viewBox="0 0 622 539" fill="none" xmlns="http://www.w3.org/2000/svg">
<path d="M306.844 22.1934H188.943V177.926H306.844V22.1934Z" stroke="#263238" stroke-linecap="round" stroke-linejoin="round"/>
<path d="M293.118 40.3369H202.683V159.783H293.118V40.3369Z" stroke="#263238" stroke-linecap="round" stroke-linejoin="round"/>
<path d="M129.993 102.328H12.0928V258.061H129.993V102.328Z" stroke="#263238" stroke-linecap="round" stroke-linejoin="round"/>
<path d="M116.268 120.471H25.832V239.917H116.268V120.471Z" stroke="#263238" stroke-linecap="round" stroke-linejoin="round"/>
<path d="M482.862 142.604C520.275 138.855 547.565 105.479 543.818 68.0562C540.071 30.6333 506.704 3.33487 469.292 7.08336C431.879 10.8319 404.589 44.2078 408.336 81.6307C412.084 119.054 445.45 146.352 482.862 142.604Z" stroke="#263238" stroke-linecap="round" stroke-linejoin="round"/>
<path d="M484.379 130.71C515.194 126.126 536.46 97.4207 531.876 66.5961C527.293 35.7716 498.596 14.5 467.78 19.0848C436.965 23.6696 415.699 52.3745 420.282 83.199C424.866 114.024 453.563 135.295 484.379 130.71Z" stroke="#263238" stroke-linecap="round" stroke-linejoin="round"/>
<path d="M440.086 74.855H476.076V126.791" stroke="#263238" stroke-linecap="round" stroke-linejoin="round"/>
<path d="M430.337 399.112L454.219 437.592C454.912 438.707 455.294 439.988 455.326 441.301C455.357 442.613 455.037 443.911 454.399 445.058C453.761 446.206 452.827 447.161 451.695 447.826C450.563 448.492 449.274 448.842 447.961 448.841H399.184C400.493 448.841 401.779 448.492 402.909 447.83C404.038 447.167 404.971 446.215 405.61 445.072C406.249 443.929 406.572 442.636 406.545 441.326C406.518 440.017 406.142 438.738 405.457 437.622L382.421 400.004L430.337 399.112Z" fill="white" stroke="#263238" stroke-linecap="round" stroke-linejoin="round"/>
<path d="M430.336 399.143L382.345 400.004L391.233 414.489H439.859L430.336 399.143Z" fill="#263238" stroke="#263238" stroke-linecap="round" stroke-linejoin="round"/>
<path d="M302.747 407.716H497.948C500.377 407.716 502.347 405.746 502.347 403.316V239.781C502.347 237.351 500.377 235.381 497.948 235.381L302.747 235.381C300.318 235.381 298.349 237.351 298.349 239.781V403.316C298.349 405.746 300.318 407.716 302.747 407.716Z" fill="white" stroke="#263238" stroke-linecap="round" stroke-linejoin="round"/>
<path d="M295.023 407.716H490.223C492.653 407.716 494.622 405.746 494.622 403.316V239.781C494.622 237.351 492.653 235.381 490.223 235.381L295.023 235.381C292.594 235.381 290.624 237.351 290.624 239.781V403.316C290.624 405.746 292.594 407.716 295.023 407.716Z" fill="white" stroke="#263238" stroke-linecap="round" stroke-linejoin="round"/>
<path d="M297.487 235.381H487.776C488.676 235.381 489.568 235.559 490.399 235.904C491.231 236.249 491.987 236.755 492.623 237.393C493.259 238.03 493.763 238.787 494.106 239.62C494.449 240.452 494.625 241.345 494.623 242.245V376.811H290.564V242.245C290.564 241.339 290.744 240.441 291.093 239.605C291.441 238.768 291.952 238.008 292.596 237.37C293.239 236.732 294.003 236.228 294.843 235.886C295.682 235.545 296.581 235.373 297.487 235.381Z" fill="#263238" stroke="#263238" stroke-linecap="round" stroke-linejoin="round"/>
<path d="M299.195 367.406H486.052V242.23L299.195 242.23V367.406Z" fill="white" stroke="#263238" stroke-linecap="round" stroke-linejoin="round"/>
<path d="M362.771 255.974H365.008V270.202H362.771V255.974Z" fill="#263238"/>
<path d="M368.621 259.89V270.202H366.61V255.974H369.422L371.719 264.487V255.974H373.715V270.202H371.417L368.621 259.89Z" fill="#263238"/>
<path d="M378.687 267.571L380.395 255.959H382.42L380.229 270.187H376.888L374.696 255.959H376.948L378.687 267.571Z" fill="#263238"/>
<path d="M383.282 259.391C383.251 258.926 383.316 258.46 383.472 258.022C383.629 257.583 383.874 257.181 384.192 256.841C384.51 256.5 384.894 256.229 385.322 256.044C385.749 255.858 386.21 255.763 386.675 255.763C387.141 255.763 387.602 255.858 388.029 256.044C388.456 256.229 388.841 256.5 389.159 256.841C389.477 257.181 389.722 257.583 389.879 258.022C390.035 258.46 390.1 258.926 390.069 259.391V266.785C390.1 267.25 390.035 267.716 389.879 268.155C389.722 268.593 389.477 268.995 389.159 269.336C388.841 269.676 388.456 269.947 388.029 270.132C387.602 270.318 387.141 270.413 386.675 270.413C386.21 270.413 385.749 270.318 385.322 270.132C384.894 269.947 384.51 269.676 384.192 269.336C383.874 268.995 383.629 268.593 383.472 268.155C383.316 267.716 383.251 267.25 383.282 266.785V259.391ZM385.519 266.951C385.519 267.964 385.973 268.342 386.683 268.342C387.393 268.342 387.832 267.964 387.832 266.951V259.255C387.832 258.242 387.393 257.864 386.683 257.864C385.973 257.864 385.519 258.242 385.519 259.255V266.951Z" fill="#263238"/>
<path d="M391.49 255.974H393.727V270.202H391.49V255.974Z" fill="#263238"/>
<path d="M401.86 264.895V266.785C401.86 269.068 400.726 270.368 398.534 270.368C398.065 270.405 397.593 270.336 397.154 270.165C396.715 269.995 396.321 269.727 396 269.383C395.679 269.038 395.439 268.626 395.3 268.176C395.16 267.726 395.124 267.251 395.194 266.785V259.391C395.124 258.926 395.16 258.45 395.3 258C395.439 257.551 395.679 257.138 396 256.794C396.321 256.449 396.715 256.182 397.154 256.011C397.593 255.84 398.065 255.771 398.534 255.808C400.726 255.808 401.86 257.108 401.86 259.391V260.767H399.758V259.255C399.758 258.242 399.305 257.864 398.595 257.864C397.884 257.864 397.431 258.242 397.431 259.255V266.951C397.431 267.964 397.884 268.327 398.595 268.327C399.305 268.327 399.758 267.964 399.758 266.951V264.91L401.86 264.895Z" fill="#263238"/>
<path d="M405.457 261.977H408.48V264.003H405.457V268.176H409.326V270.202H403.28V255.974H409.326V258H405.457V261.977Z" fill="#263238"/>
<path d="M479.432 275.826H306.965V286.501H479.432V275.826Z" fill="#F67F20"/>
<path d="M307.523 355.613V293.804H478.313V357.866" stroke="#263238" stroke-miterlimit="10"/>
<path d="M308.098 314.593H477.753" stroke="#263238" stroke-miterlimit="10"/>
<path d="M431.123 293.35V357.866" stroke="#263238" stroke-miterlimit="10"/>
<path d="M215.561 440.253H209.621V442.234H215.561V440.253Z" fill="white" stroke="#263238" stroke-linecap="round" stroke-linejoin="round"/>
<path d="M223.467 440.253H217.526V442.234H223.467V440.253Z" fill="white" stroke="#263238" stroke-linecap="round" stroke-linejoin="round"/>
<path d="M231.388 440.253H225.447V442.234H231.388V440.253Z" fill="white" stroke="#263238" stroke-linecap="round" stroke-linejoin="round"/>
<path d="M239.293 440.253H233.353V442.234H239.293V440.253Z" fill="white" stroke="#263238" stroke-linecap="round" stroke-linejoin="round"/>
<path d="M247.213 440.253H241.272V442.234H247.213V440.253Z" fill="white" stroke="#263238" stroke-linecap="round" stroke-linejoin="round"/>
<path d="M255.118 440.253H249.178V442.234H255.118V440.253Z" fill="white" stroke="#263238" stroke-linecap="round" stroke-linejoin="round"/>
<path d="M263.039 440.253H257.099V442.234H263.039V440.253Z" fill="white" stroke="#263238" stroke-linecap="round" stroke-linejoin="round"/>
<path d="M270.944 440.253H265.004V442.234H270.944V440.253Z" fill="white" stroke="#263238" stroke-linecap="round" stroke-linejoin="round"/>
<path d="M278.865 440.253H272.925V442.234H278.865V440.253Z" fill="white" stroke="#263238" stroke-linecap="round" stroke-linejoin="round"/>
<path d="M286.77 440.253H280.83V442.234H286.77V440.253Z" fill="white" stroke="#263238" stroke-linecap="round" stroke-linejoin="round"/>
<path d="M294.69 440.253H288.75V442.234H294.69V440.253Z" fill="white" stroke="#263238" stroke-linecap="round" stroke-linejoin="round"/>
<path d="M302.596 440.253H296.655V442.234H302.596V440.253Z" fill="white" stroke="#263238" stroke-linecap="round" stroke-linejoin="round"/>
<path d="M310.517 440.253H304.576V442.234H310.517V440.253Z" fill="white" stroke="#263238" stroke-linecap="round" stroke-linejoin="round"/>
<path d="M318.422 440.253H312.481V442.234H318.422V440.253Z" fill="white" stroke="#263238" stroke-linecap="round" stroke-linejoin="round"/>
<path d="M326.343 440.253H320.402V442.234H326.343V440.253Z" fill="white" stroke="#263238" stroke-linecap="round" stroke-linejoin="round"/>
<path d="M334.248 440.253H328.308V442.234H334.248V440.253Z" fill="white" stroke="#263238" stroke-linecap="round" stroke-linejoin="round"/>
<path d="M342.168 440.253H336.228V442.234H342.168V440.253Z" fill="white" stroke="#263238" stroke-linecap="round" stroke-linejoin="round"/>
<path d="M350.073 440.253H344.133V442.234H350.073V440.253Z" fill="white" stroke="#263238" stroke-linecap="round" stroke-linejoin="round"/>
<path d="M357.994 440.253H352.054V442.234H357.994V440.253Z" fill="white" stroke="#263238" stroke-linecap="round" stroke-linejoin="round"/>
<path d="M365.899 440.253H359.959V442.234H365.899V440.253Z" fill="white" stroke="#263238" stroke-linecap="round" stroke-linejoin="round"/>
<path d="M373.82 440.253H367.88V442.234H373.82V440.253Z" fill="white" stroke="#263238" stroke-linecap="round" stroke-linejoin="round"/>
<path d="M378.128 442.521H206.553V448.917H378.128V442.521Z" fill="white" stroke="#263238" stroke-linecap="round" stroke-linejoin="round"/>
<path d="M378.128 442.521H336.273V448.917H378.128V442.521Z" fill="#263238" stroke="#263238" stroke-linecap="round" stroke-linejoin="round"/>
<path d="M543.974 304.373V282.252H528.103V304.373H517.537L536.038 336.426L554.525 304.373H543.974Z" fill="#263238"/>
<path d="M421.721 225.553V223.285" stroke="#263238" stroke-miterlimit="10"/>
<path d="M421.721 218.825V202.874C421.721 200.067 422.835 197.375 424.82 195.39C426.804 193.405 429.495 192.29 432.302 192.29H526.017C528.823 192.29 531.515 193.405 533.499 195.39C535.483 197.375 536.598 200.067 536.598 202.874V271.714" stroke="#263238" stroke-miterlimit="10" stroke-dasharray="2.95 2.95"/>
<path d="M536.598 273.937V276.204" stroke="#263238" stroke-miterlimit="10"/>
<path d="M481.805 349.535H577.788C580.293 349.535 582.696 350.531 584.468 352.303C586.239 354.075 587.235 356.479 587.235 358.985V435.4H472.357V358.985C472.357 356.479 473.353 354.075 475.124 352.303C476.896 350.531 479.299 349.535 481.805 349.535Z" fill="#263238" stroke="#263238" stroke-miterlimit="10"/>
<path d="M581.188 338.951H478.403V435.354H581.188V338.951Z" fill="white" stroke="#263238" stroke-miterlimit="10"/>
<path d="M419.998 385.202H600.189C601.721 385.202 603.189 385.811 604.272 386.894C605.355 387.977 605.963 389.446 605.963 390.978V448.206H420.043V385.202H419.998Z" fill="#263238" stroke="#263238" stroke-miterlimit="10"/>
<path d="M396.115 385.202H574.855C575.813 385.202 576.732 385.583 577.41 386.261C578.087 386.938 578.468 387.857 578.468 388.816V448.206H392.548V388.816C392.548 387.865 392.922 386.953 393.59 386.276C394.258 385.6 395.165 385.214 396.115 385.202Z" fill="#636363" stroke="#263238" stroke-miterlimit="10"/>
<path d="M408.51 385.202H562.476V426.449C562.476 429.829 561.133 433.071 558.743 435.461C556.354 437.852 553.113 439.195 549.733 439.195H421.252C417.873 439.195 414.632 437.852 412.242 435.461C409.852 433.071 408.51 429.829 408.51 426.449V385.202Z" fill="#636363" stroke="#263238" stroke-miterlimit="10"/>
<path d="M533.983 385.202H437.002V448.206H533.983V385.202Z" fill="#263238" stroke="#263238" stroke-miterlimit="10"/>
<path d="M445.497 417.982C445.497 417.982 448.792 433.661 441.356 439.452C433.919 445.243 396.78 443.988 396.78 443.988H518.142C518.142 443.988 533.001 447.707 532.169 420.87L445.497 417.982Z" fill="white" stroke="#263238" stroke-miterlimit="10"/>
<path d="M519.91 441.644H442.217L446.464 439.271H522.963L519.91 441.644Z" fill="#F67F20"/>
<path d="M452.33 423.5C452.33 433.071 450.062 436.609 450.062 436.609H524.929C524.929 436.609 528.209 434.583 528.965 423.742" stroke="#A3A3A3" stroke-miterlimit="10"/>
<path d="M451.332 432.073H527.196" stroke="#A3A3A3" stroke-miterlimit="10"/>
<path d="M452.088 427.28H528.209" stroke="#A3A3A3" stroke-miterlimit="10"/>
<path d="M500.986 436.352C500.986 436.352 504.765 432.829 504.508 423.5" stroke="#A3A3A3" stroke-miterlimit="10"/>
<path d="M533.983 385.202H437.002V421.353H533.983V385.202Z" fill="#636363" stroke="#263238" stroke-miterlimit="10"/>
<path d="M533.968 444.063H428.205V448.206H533.968V444.063Z" fill="#263238" stroke="#263238" stroke-miterlimit="10"/>
<path d="M433.496 385.202H537.475V390.207C537.475 392.857 536.422 395.399 534.549 397.274C532.675 399.148 530.134 400.201 527.484 400.201H443.503C440.853 400.201 438.311 399.148 436.438 397.274C434.564 395.399 433.511 392.857 433.511 390.207V385.202H433.496Z" fill="#263238" stroke="#263238" stroke-miterlimit="10"/>
<path d="M572.466 396.451C572.466 397.094 572.276 397.723 571.919 398.257C571.562 398.792 571.054 399.209 570.46 399.455C569.866 399.701 569.213 399.765 568.583 399.64C567.952 399.514 567.373 399.205 566.919 398.75C566.464 398.295 566.155 397.716 566.029 397.086C565.904 396.455 565.968 395.801 566.214 395.207C566.46 394.613 566.877 394.106 567.411 393.749C567.946 393.391 568.574 393.201 569.217 393.201C570.078 393.201 570.905 393.543 571.515 394.153C572.124 394.762 572.466 395.589 572.466 396.451Z" fill="white" stroke="#263238" stroke-miterlimit="10"/>
<path d="M572.466 410.951C572.466 411.594 572.276 412.223 571.919 412.757C571.562 413.292 571.054 413.709 570.46 413.955C569.866 414.201 569.213 414.265 568.583 414.14C567.952 414.014 567.373 413.705 566.919 413.25C566.464 412.795 566.155 412.216 566.029 411.586C565.904 410.955 565.968 410.301 566.214 409.707C566.46 409.113 566.877 408.606 567.411 408.249C567.946 407.891 568.574 407.701 569.217 407.701C570.078 407.701 570.905 408.043 571.515 408.653C572.124 409.262 572.466 410.089 572.466 410.951Z" fill="white" stroke="#263238" stroke-miterlimit="10"/>
<path d="M569.988 443.051H568.023C567.308 443.047 566.623 442.76 566.119 442.253C565.615 441.745 565.332 441.059 565.332 440.344C565.332 439.63 565.615 438.946 566.12 438.441C566.625 437.936 567.309 437.653 568.023 437.653H569.988C570.701 437.653 571.386 437.936 571.89 438.441C572.395 438.946 572.678 439.63 572.678 440.344C572.68 440.699 572.612 441.05 572.478 441.379C572.343 441.707 572.145 442.005 571.895 442.257C571.645 442.509 571.348 442.708 571.021 442.844C570.693 442.98 570.342 443.051 569.988 443.051Z" fill="#263238" stroke="#263238" stroke-miterlimit="10"/>
<path d="M483.724 531.38V465.594H454.748V531.606" fill="white"/>
<path d="M483.724 531.38V465.594H454.748V531.606" stroke="#263238" stroke-linecap="round" stroke-linejoin="round"/>
<path d="M483.74 465.594H469.244V532.196H483.74V465.594Z" fill="#263238" stroke="#263238" stroke-linecap="round" stroke-linejoin="round"/>
<path d="M613.521 531.38V465.594H584.529V531.606" fill="white"/>
<path d="M613.521 531.38V465.594H584.529V531.606" stroke="#263238" stroke-linecap="round" stroke-linejoin="round"/>
<path d="M613.52 465.594H599.024V532.196H613.52V465.594Z" fill="#263238" stroke="#263238" stroke-linecap="round" stroke-linejoin="round"/>
<path d="M621.245 454.33H30.2314V477.281H621.245V454.33Z" fill="white" stroke="#263238" stroke-miterlimit="10"/>
<path d="M621.244 454.33H479.038V477.281H621.244V454.33Z" fill="#263238" stroke="#263238" stroke-miterlimit="10"/>
<path d="M621.245 448.07H30.2314V456.129H621.245V448.07Z" fill="white" stroke="#263238" stroke-miterlimit="10"/>
<path d="M621.244 448.07H491.932V456.129H621.244V448.07Z" fill="#263238" stroke="#263238" stroke-miterlimit="10"/>
<path d="M218.508 134.185C218.508 134.185 219.582 143.514 218.871 147.097C218.161 150.681 214.216 152.843 214.563 155.353C214.911 157.862 223.89 170.775 219.582 175.008C217.396 177.38 214.697 179.221 211.691 180.391L208.835 186.847C208.835 186.847 191.618 197.975 184.801 200.848C177.984 203.721 184.075 217.343 184.075 217.343L166.496 213.397L162.203 233.854C162.203 233.854 148.932 220.927 130.99 215.196C113.048 209.466 106.246 210.177 106.246 210.177C109.154 202.999 111.317 195.541 112.7 187.92C115.21 174.645 116.646 145.222 116.646 143.075C116.646 140.928 128.118 107.907 138.17 101.451C148.222 94.9947 189.094 102.177 210.618 107.499C232.143 112.821 222.816 128.47 222.816 128.47L218.508 134.185Z" fill="#FFBE9D" stroke="#263238" stroke-miterlimit="10"/>
<path d="M217.798 145.661C217.798 145.661 216.725 141.715 212.054 143.151C207.383 144.588 206.31 147.097 208.109 147.097C209.908 147.097 214.155 144.95 215.289 147.097C216.423 149.244 217.435 148.126 217.798 145.661Z" fill="#263238" stroke="#263238" stroke-miterlimit="10"/>
<path d="M211.344 158.573L209.183 159.662C209.183 159.662 212.417 161.809 210.981 166.829C209.545 171.848 208.109 176.157 208.109 176.157" stroke="#263238" stroke-miterlimit="10"/>
<path d="M198.42 124.493C198.42 124.493 201.655 138.101 200.219 141.004C198.783 143.907 188.021 147.823 186.947 151.769C185.874 155.715 183.728 176.853 184.408 180.829C185.088 184.806 186.917 191.595 188.716 191.595C190.515 191.595 203.831 181.54 208.804 181.177C213.777 180.814 211.661 189.795 209.152 192.668C206.643 195.541 201.594 196.251 201.987 199.487C202.38 202.723 208.804 213.836 201.625 223.527C194.445 233.219 186.207 231.087 177.591 224.238C168.975 217.389 167.554 205.943 170.033 199.487C172.512 193.031 176.488 176.157 176.85 168.628C177.213 161.098 175.339 151.406 170.033 153.508C164.728 155.61 168.96 176.838 165.015 181.495C161.07 186.151 145.335 199.532 141.042 199.532C136.749 199.532 113.411 189.115 112.7 188.041C111.99 186.968 114.877 138.842 111.99 119.836C109.103 100.831 115.935 87.1778 137.807 80.7217C159.679 74.2656 199.523 86.1346 199.523 86.1346C199.523 86.1346 195.578 79.6784 204.179 76.8057C212.78 73.9329 233.231 81.8254 234.667 94.7377C236.103 107.65 228.621 108.013 229.649 112.322C230.676 116.631 244.356 124.886 237.206 131.705C230.057 138.524 218.554 134.215 218.554 134.215L217.118 123.087C217.118 123.087 209.545 113.728 198.42 124.493Z" fill="#263238" stroke="#263238" stroke-miterlimit="10"/>
<path d="M200.219 151.407L166.149 150.333C166.149 150.333 158.969 152.117 158.258 156.063C157.548 160.01 156.747 169.338 158.969 169.671C161.191 170.004 161.13 167.524 161.13 164.289C161.13 161.053 161.13 156.033 163.987 154.249C166.451 153.019 169.131 152.285 171.877 152.087L200.944 154.96L228.243 157.197V152.48L200.219 151.407Z" fill="#5E5E5E" stroke="#263238" stroke-miterlimit="10"/>
<path d="M175.822 165.392C175.822 165.392 176.911 153.916 171.167 150.681C165.423 147.445 161.478 156.426 161.13 164.288C160.783 172.151 166.149 181.873 172.966 180.073" fill="#FFBE9D"/>
<path d="M175.822 165.392C175.822 165.392 176.911 153.916 171.167 150.681C165.423 147.445 161.478 156.426 161.13 164.288C160.783 172.151 166.149 181.873 172.966 180.073" stroke="#263238" stroke-miterlimit="10"/>
<path d="M228.243 157.197C228.243 157.197 228.953 165.453 225.734 169.399C224.512 170.834 223.055 172.051 221.426 172.997" stroke="#263238" stroke-miterlimit="10"/>
<path d="M328.217 223.951L313.797 274.435L302.989 303.284L291.275 334.37C291.275 334.37 258.822 333.932 244.417 331.225C230.012 328.519 204.059 319.296 204.059 319.296C216.872 298.839 226.792 276.705 233.534 253.525C239.655 232.115 244.402 214.939 244.402 214.939L328.217 223.951Z" fill="white" stroke="#263238" stroke-miterlimit="10"/>
<path d="M255.995 247.084C255.995 247.084 245.203 285.836 240.789 293.683L293.24 301.53C293.24 301.53 303.05 284.354 310.411 254.432L255.995 247.084Z" stroke="#A3A3A3" stroke-miterlimit="10"/>
<path d="M253.048 255.914L307.479 263.262" stroke="#A3A3A3" stroke-miterlimit="10"/>
<path d="M250.599 268.66L302.898 275.6" stroke="#A3A3A3" stroke-miterlimit="10"/>
<path d="M246.291 281.617L298.772 288.981" stroke="#A3A3A3" stroke-miterlimit="10"/>
<path d="M280.498 286.546L270.204 314.775L286.876 318.207L292.771 298.582" stroke="#A3A3A3" stroke-miterlimit="10"/>
<path d="M220.686 296.616L242.255 300.547" stroke="#A3A3A3" stroke-miterlimit="10"/>
<path d="M219.22 299.564L240.789 303.48" stroke="#A3A3A3" stroke-miterlimit="10"/>
<path d="M217.738 302.513L239.323 306.429" stroke="#A3A3A3" stroke-miterlimit="10"/>
<path d="M246.684 218.462L240.185 241.006L316.049 250.123L323.425 227.564L246.684 218.462Z" fill="#F67F20"/>
<path d="M249.405 222.907L251.052 223.074L248.029 233.657L246.382 233.476L249.405 222.907Z" fill="white"/>
<path d="M252.942 226.249L250.78 233.809L249.269 233.658L252.292 223.074L254.347 223.285L254.257 229.757L256.04 223.467L257.552 223.618L254.529 234.202L252.836 234.036L252.942 226.249Z" fill="white"/>
<path d="M258.747 232.69L262.45 224.238L263.961 224.404L259.427 234.746L256.963 234.489L258.338 223.814L260.001 223.981L258.747 232.69Z" fill="white"/>
<path d="M263.855 226.99C263.985 226.246 264.398 225.582 265.007 225.137C265.615 224.692 266.373 224.499 267.12 224.601C268.738 224.767 269.342 225.81 268.858 227.504L267.347 232.962C267.221 233.704 266.811 234.367 266.205 234.813C265.598 235.259 264.843 235.452 264.097 235.351C262.48 235.184 261.86 234.141 262.344 232.448L263.855 226.99ZM263.855 232.735C263.644 233.476 263.855 233.793 264.415 233.854C264.974 233.914 265.352 233.657 265.563 232.901L267.181 227.231C267.392 226.475 267.181 226.158 266.621 226.097C266.062 226.037 265.684 226.294 265.473 227.05L263.855 232.735Z" fill="white"/>
<path d="M270.642 225.084L272.29 225.251L269.267 235.835L267.619 235.668L270.642 225.084Z" fill="white"/>
<path d="M276.401 232.463L275.993 233.869C275.877 234.608 275.477 235.271 274.878 235.718C274.279 236.164 273.529 236.358 272.789 236.258C271.171 236.092 270.612 235.034 271.081 233.355L272.592 227.897C272.712 227.157 273.115 226.492 273.715 226.043C274.316 225.594 275.068 225.397 275.812 225.493C277.429 225.659 277.989 226.718 277.52 228.396L277.218 229.424L275.706 229.258L276.024 228.124C276.25 227.383 276.024 227.065 275.464 227.005C274.905 226.944 274.542 227.202 274.315 227.958L272.698 233.627C272.486 234.383 272.698 234.686 273.272 234.746C273.847 234.807 274.195 234.565 274.406 233.809L274.845 232.297L276.401 232.463Z" fill="white"/>
<path d="M279.636 230.573L281.903 230.815L281.465 232.327L279.213 232.085L278.336 235.109L281.178 235.411L280.754 236.923L276.22 236.454L279.243 225.946L283.777 226.4L283.354 227.912L280.497 227.609L279.636 230.573Z" fill="white"/>
<path d="M314.401 234.308C314.542 235.453 314.332 236.615 313.797 237.638C313.262 238.66 312.429 239.496 311.408 240.034C310.387 240.572 309.227 240.786 308.081 240.648C306.935 240.509 305.859 240.026 304.995 239.261C304.13 238.496 303.519 237.487 303.243 236.366C302.966 235.245 303.037 234.067 303.446 232.988C303.855 231.909 304.583 230.98 305.533 230.324C306.483 229.669 307.609 229.318 308.763 229.318C310.171 229.235 311.555 229.714 312.612 230.649C313.668 231.584 314.312 232.9 314.401 234.308Z" fill="white"/>
<path d="M260.636 379.896C260.636 379.896 274.149 347.902 275.494 335.277C276.84 322.652 277.747 310.935 280.906 307.336C284.065 303.738 291.275 286.607 292.62 281.633C293.965 276.658 297.155 271.714 300.722 275.313C304.289 278.911 302.989 287.484 301.629 290.644C300.269 293.804 298.47 298.748 298.47 298.748L307.932 288.391L313.797 274.42C313.797 274.42 318.755 274.42 319.647 278.956C320.538 283.492 325.965 290.221 324.604 294.273C323.617 296.844 321.687 298.941 319.208 300.139C319.208 300.139 321.46 311.403 321.007 315.455C320.002 320.811 317.125 325.635 312.89 329.063C308.355 332.662 295.779 344.379 295.779 344.379C295.779 344.379 302.082 392.158 295.779 415.593C289.476 439.029 278.2 446.241 270.083 447.586C261.966 448.932 246.216 430.955 246.216 430.955C246.216 430.955 262.888 422.261 260.636 379.896Z" fill="#FFBE9D" stroke="#263238" stroke-miterlimit="10"/>
<path d="M319.208 300.124L311.998 307.336" stroke="#263238" stroke-miterlimit="10"/>
<path d="M307.932 288.406L315.142 282.54" stroke="#263238" stroke-miterlimit="10"/>
<path d="M101.274 201.044C101.274 201.044 113.865 198.02 133.016 206.094C147.041 211.766 159.365 220.963 168.794 232.796C172.938 238.371 176.323 244.472 178.861 250.939C178.861 250.939 105.808 222.787 97.7518 222.787H79.6133C79.6133 222.787 89.1814 202.118 101.274 201.044Z" fill="#003048" stroke="#263238" stroke-miterlimit="10"/>
<path d="M352.19 532.166C293.738 480.759 202.547 480.759 202.547 480.759L188.943 467.665H27.0869V532.907" fill="#003048"/>
<path d="M352.19 532.166C293.738 480.759 202.547 480.759 202.547 480.759L188.943 467.665H27.0869V532.907" stroke="white" stroke-miterlimit="10"/>
<path d="M199.025 483.783C199.025 483.783 191.467 516.547 176.851 530.654" stroke="white" stroke-opacity="0.3" stroke-miterlimit="10"/>
<path d="M194.49 481.333C188.793 494.246 179.526 505.262 167.781 513.085" stroke="white" stroke-opacity="0.3" stroke-miterlimit="10"/>
<path d="M81.624 216.738C81.624 216.738 92.7036 214.213 114.379 218.749C136.055 223.285 167.782 241.867 181.885 247.915C195.987 253.963 207.082 254.477 209.606 263.549C212.131 272.621 239.837 358.289 251.93 367.875C269.751 382.012 286.695 406.808 267.045 427.356C255.451 439.452 239.837 440.465 232.778 437.94C225.719 435.415 208.594 417.785 208.594 412.236V405.16L175.34 366.862C175.34 366.862 182.399 426.842 185.422 434.901C188.445 442.96 196.501 454.617 196.501 459.591C196.501 464.566 184.908 474.711 171.304 483.284C157.7 491.857 144.096 499.416 112.868 500.928C81.6391 502.44 44.3342 497.39 36.2777 486.807C28.2212 476.223 18.1392 463.628 17.1264 445.983C16.1137 428.339 12.5918 358.803 12.5918 358.803C12.5918 358.803 14.6173 302.346 16.1288 283.764C17.6404 265.182 21.6611 253.026 31.2442 248.989C40.8274 244.952 75.079 216.738 81.624 216.738Z" fill="#F67F20" stroke="#263238" stroke-miterlimit="10"/>
<path d="M97.2676 332.964C98.6524 335.135 100.167 337.22 101.802 339.208" stroke="#263238" stroke-miterlimit="10"/>
<path d="M74.5645 262.597C74.5645 262.597 79.9758 300.396 93.5192 326.447" stroke="#263238" stroke-miterlimit="10"/>
<path d="M78.1016 309.906C78.1016 309.906 89.1812 345.755 106.307 364.337" stroke="#263238" stroke-miterlimit="10"/>
<path d="M150.142 336.683L175.339 366.923" stroke="#263238" stroke-miterlimit="10"/>
<path d="M142.584 327.611L146.514 332.314" stroke="#263238" stroke-miterlimit="10"/>
<path d="M143.597 341.219L167.283 358.35" stroke="#263238" stroke-miterlimit="10"/>
<path d="M177.35 274.692C177.35 274.692 153.679 297.372 154.178 323.514" stroke="#263238" stroke-miterlimit="10"/>
<path d="M251.929 367.936C251.929 367.936 260.484 384.567 247.893 396.663C235.302 408.759 208.593 405.16 208.593 405.16V412.221C208.593 417.77 225.719 435.4 232.777 437.925C239.836 440.45 255.451 439.437 267.044 427.341C286.724 406.854 269.75 382.057 251.929 367.936Z" fill="#003048" stroke="#263238" stroke-miterlimit="10"/>
<path d="M185.422 434.961L158.214 409.258" stroke="#263238" stroke-miterlimit="10"/>
<path d="M143.098 394.637L169.792 413.794" stroke="#263238" stroke-miterlimit="10"/>
<path d="M104.811 421.611C106.734 423.012 108.755 424.275 110.857 425.391" stroke="#263238" stroke-miterlimit="10"/>
<path d="M46.3594 377.506C46.3594 377.506 76.6809 401.184 95.9682 415.306" stroke="#263238" stroke-miterlimit="10"/>
<path d="M52.4053 392.626C52.4053 392.626 74.5645 408.759 78.1015 410.77" stroke="#263238" stroke-miterlimit="10"/>
<path d="M26.8305 403.966H146.242C149.951 403.966 153.507 405.439 156.129 408.062C158.751 410.685 160.224 414.242 160.224 417.952V520.07C160.224 522.777 159.149 525.373 157.236 527.287C155.322 529.201 152.727 530.276 150.021 530.276H23.0517C20.3457 530.276 17.7505 529.201 15.8371 527.287C13.9237 525.373 12.8488 522.777 12.8488 520.07V418.012C12.8408 416.17 13.1966 414.345 13.8957 412.641C14.5947 410.938 15.6234 409.389 16.9225 408.084C18.2216 406.778 19.7656 405.743 21.4659 405.036C23.1662 404.33 24.9893 403.966 26.8305 403.966Z" fill="#263238" stroke="#263238" stroke-miterlimit="10"/>
<path d="M14.7378 403.966H134.15C137.858 403.966 141.414 405.439 144.036 408.062C146.658 410.685 148.131 414.242 148.131 417.952V520.07C148.131 522.777 147.057 525.373 145.143 527.287C143.23 529.201 140.635 530.276 137.929 530.276H10.9589C8.25292 530.276 5.65777 529.201 3.74436 527.287C1.83094 525.373 0.75599 522.777 0.75599 520.07V418.012C0.748028 416.17 1.1038 414.345 1.80289 412.641C2.50197 410.938 3.5306 409.389 4.82972 408.084C6.12884 406.778 7.67287 405.743 9.37317 405.036C11.0735 404.33 12.8966 403.966 14.7378 403.966Z" fill="#636363" stroke="#263238" stroke-miterlimit="10"/>
<path d="M28.7196 539V441.009C28.7196 439.806 28.2419 438.652 27.3915 437.802C26.5411 436.951 25.3877 436.473 24.185 436.473C22.9824 436.473 21.829 436.951 20.9786 437.802C20.1281 438.652 19.6504 439.806 19.6504 441.009V539H28.7196Z" fill="#263238"/>
<path d="M111.099 539V441.009C111.099 439.806 110.621 438.652 109.77 437.802C108.92 436.951 107.767 436.473 106.564 436.473C105.361 436.473 104.208 436.951 103.357 437.802C102.507 438.652 102.029 439.806 102.029 441.009V539H111.099Z" fill="#263238"/>
</svg>
