<svg width="113" height="133" viewBox="0 0 113 133" fill="none" xmlns="http://www.w3.org/2000/svg">
<path opacity="0.15" d="M53.5 26C42.1667 26 42.1667 43 53.5 43C64.8333 43 64.8333 26 53.5 26Z" fill="#F67F20"/>
<path opacity="0.15" d="M79.0264 0C70.9912 0 70.9912 12 79.0264 12C86.9206 12 87.0615 0 79.0264 0Z" fill="#F67F20"/>
<path opacity="0.15" d="M53 84C47.6667 84 47.6667 91 53 91C58.3333 91 58.3333 84 53 84Z" fill="#F67F20"/>
<path opacity="0.15" d="M66.0271 57C60.6576 57 60.6576 64 66.0271 64C71.2515 64 71.3966 57 66.0271 57Z" fill="#F67F20"/>
<path opacity="0.15" d="M109.5 10C104.833 10 104.833 17 109.5 17C114.167 17 114.167 10 109.5 10Z" fill="#F67F20"/>
<path opacity="0.15" d="M45 119C42.3333 119 42.3333 122 45 122C47.6667 122 47.6667 119 45 119Z" fill="#F67F20"/>
<path opacity="0.15" d="M2.55102 128C-0.85034 128 -0.85034 133 2.55102 133C5.81633 133 5.81633 128 2.55102 128Z" fill="#F67F20"/>
<path opacity="0.15" d="M18 80C12.6667 80 12.6667 87 18 87C23.3333 87 23.3333 80 18 80Z" fill="#F67F20"/>
<path opacity="0.15" d="M21 40C15.6667 40 15.6667 48 21 48C26.3333 48 26.3333 40 21 40Z" fill="#F67F20"/>
</svg>
